%TF.GenerationSoftware,KiCad,Pcbnew,9.0.6*%
%TF.CreationDate,2025-11-11T11:50:19+01:00*%
%TF.ProjectId,tankuhr,74616e6b-7568-4722-9e6b-696361645f70,rev?*%
%TF.SameCoordinates,Original*%
%TF.FileFunction,Copper,L1,Top*%
%TF.FilePolarity,Positive*%
%FSLAX46Y46*%
G04 Gerber Fmt 4.6, Leading zero omitted, Abs format (unit mm)*
G04 Created by KiCad (PCBNEW 9.0.6) date 2025-11-11 11:50:19*
%MOMM*%
%LPD*%
G01*
G04 APERTURE LIST*
G04 Aperture macros list*
%AMRoundRect*
0 Rectangle with rounded corners*
0 $1 Rounding radius*
0 $2 $3 $4 $5 $6 $7 $8 $9 X,Y pos of 4 corners*
0 Add a 4 corners polygon primitive as box body*
4,1,4,$2,$3,$4,$5,$6,$7,$8,$9,$2,$3,0*
0 Add four circle primitives for the rounded corners*
1,1,$1+$1,$2,$3*
1,1,$1+$1,$4,$5*
1,1,$1+$1,$6,$7*
1,1,$1+$1,$8,$9*
0 Add four rect primitives between the rounded corners*
20,1,$1+$1,$2,$3,$4,$5,0*
20,1,$1+$1,$4,$5,$6,$7,0*
20,1,$1+$1,$6,$7,$8,$9,0*
20,1,$1+$1,$8,$9,$2,$3,0*%
G04 Aperture macros list end*
%TA.AperFunction,SMDPad,CuDef*%
%ADD10R,2.000000X2.000000*%
%TD*%
%TA.AperFunction,ComponentPad*%
%ADD11RoundRect,0.250000X0.650000X0.650000X-0.650000X0.650000X-0.650000X-0.650000X0.650000X-0.650000X0*%
%TD*%
%TA.AperFunction,ComponentPad*%
%ADD12C,1.800000*%
%TD*%
%TA.AperFunction,ComponentPad*%
%ADD13R,1.700000X1.700000*%
%TD*%
%TA.AperFunction,ComponentPad*%
%ADD14C,1.700000*%
%TD*%
%TA.AperFunction,SMDPad,CuDef*%
%ADD15RoundRect,0.250000X-0.262500X-0.450000X0.262500X-0.450000X0.262500X0.450000X-0.262500X0.450000X0*%
%TD*%
%TA.AperFunction,SMDPad,CuDef*%
%ADD16RoundRect,0.250000X0.262500X0.450000X-0.262500X0.450000X-0.262500X-0.450000X0.262500X-0.450000X0*%
%TD*%
%TA.AperFunction,SMDPad,CuDef*%
%ADD17RoundRect,0.250000X0.250000X0.475000X-0.250000X0.475000X-0.250000X-0.475000X0.250000X-0.475000X0*%
%TD*%
%TA.AperFunction,SMDPad,CuDef*%
%ADD18RoundRect,0.500000X0.500000X-0.875000X0.500000X0.875000X-0.500000X0.875000X-0.500000X-0.875000X0*%
%TD*%
%TA.AperFunction,SMDPad,CuDef*%
%ADD19RoundRect,0.275000X-0.275000X0.975000X-0.275000X-0.975000X0.275000X-0.975000X0.275000X0.975000X0*%
%TD*%
%TA.AperFunction,SMDPad,CuDef*%
%ADD20C,1.700000*%
%TD*%
%TA.AperFunction,ViaPad*%
%ADD21C,0.600000*%
%TD*%
%TA.AperFunction,Conductor*%
%ADD22C,0.200000*%
%TD*%
G04 APERTURE END LIST*
D10*
%TO.P,GND1,1,1*%
%TO.N,GND*%
X61000000Y-72000000D03*
%TD*%
D11*
%TO.P,U1,1,-Vin*%
%TO.N,GND*%
X59967500Y-60810000D03*
D12*
%TO.P,U1,2,+Vin*%
%TO.N,+12V*%
X59967500Y-58270000D03*
%TO.P,U1,3,-Vout*%
%TO.N,GND*%
X59967500Y-55730000D03*
%TO.P,U1,4,+Vout*%
%TO.N,+5V*%
X59967500Y-53190000D03*
%TD*%
D13*
%TO.P,J1,1,Pin_1*%
%TO.N,GND*%
X67500000Y-59500000D03*
D14*
%TO.P,J1,2,Pin_2*%
%TO.N,SENSOR_FUEL_LEVEL*%
X67500000Y-56960000D03*
%TO.P,J1,3,Pin_3*%
%TO.N,SENSOR_FUEL_FLOW*%
X67500000Y-54420000D03*
%TO.P,J1,4,Pin_4*%
%TO.N,+12V*%
X67500000Y-51880000D03*
%TD*%
D15*
%TO.P,R1,1*%
%TO.N,SENSOR_FUEL_LEVEL*%
X61675000Y-67000000D03*
%TO.P,R1,2*%
%TO.N,+5V*%
X63500000Y-67000000D03*
%TD*%
D16*
%TO.P,R2,1*%
%TO.N,SENSOR_FUEL_LEVEL*%
X60087500Y-66950000D03*
%TO.P,R2,2*%
%TO.N,Net-(U1-GPIO2_A0_D0)*%
X58262500Y-66950000D03*
%TD*%
D10*
%TO.P,1,1,1*%
%TO.N,+5V*%
X57500000Y-72000000D03*
%TD*%
D17*
%TO.P,C1,1*%
%TO.N,Net-(U1-GPIO2_A0_D0)*%
X56587500Y-66950000D03*
%TO.P,C1,2*%
%TO.N,GND*%
X54687500Y-66950000D03*
%TD*%
D18*
%TO.P,U2,1,GPIO2_A0_D0*%
%TO.N,Net-(U1-GPIO2_A0_D0)*%
X34420000Y-68000000D03*
%TO.P,U2,2,GPIO3_A1_D1*%
%TO.N,SENSOR_FUEL_FLOW*%
X36960000Y-68000000D03*
%TO.P,U2,3,GPIO4_A2_D2*%
%TO.N,unconnected-(U1-GPIO4_A2_D2-Pad3)*%
X39500000Y-68000000D03*
%TO.P,U2,4,GPIO5_A3_D3*%
%TO.N,unconnected-(U1-GPIO5_A3_D3-Pad4)*%
X42040000Y-68000000D03*
%TO.P,U2,5,GPIO6_D4_SDA*%
%TO.N,unconnected-(U1-GPIO6_D4_SDA-Pad5)*%
X44580000Y-68000000D03*
%TO.P,U2,6,GPIO7_D5_SCL*%
%TO.N,unconnected-(U1-GPIO7_D5_SCL-Pad6)*%
X47120000Y-68000000D03*
%TO.P,U2,7,GPIO21_D6_TX*%
%TO.N,unconnected-(U1-GPIO21_D6_TX-Pad7)*%
X49660000Y-68000000D03*
%TO.P,U2,8,GPIO20_D7_RX*%
%TO.N,unconnected-(U1-GPIO20_D7_RX-Pad8)*%
X49660000Y-51835000D03*
%TO.P,U2,9,GPIO8_D8_SCK*%
%TO.N,unconnected-(U1-GPIO8_D8_SCK-Pad9)*%
X47120000Y-51835000D03*
%TO.P,U2,10,GPIO9_D9_MISO*%
%TO.N,unconnected-(U1-GPIO9_D9_MISO-Pad10)*%
X44580000Y-51835000D03*
%TO.P,U2,11,GPIO10_D10_MOSI*%
%TO.N,unconnected-(U1-GPIO10_D10_MOSI-Pad11)*%
X42040000Y-51835000D03*
%TO.P,U2,12,3V3*%
%TO.N,unconnected-(U1-3V3-Pad12)*%
X39500000Y-51835000D03*
%TO.P,U2,13,GND*%
%TO.N,GND*%
X36960000Y-51835000D03*
%TO.P,U2,14,5V*%
%TO.N,+5V*%
X34420000Y-51835000D03*
D19*
%TO.P,U2,15,BAT*%
%TO.N,unconnected-(U1-BAT-Pad15)*%
X41658000Y-64390000D03*
%TO.P,U2,16,GND*%
%TO.N,GND*%
X39753000Y-64390000D03*
D20*
%TO.P,U2,17,MTDI*%
%TO.N,unconnected-(U1-MTDI-Pad17)*%
X33408000Y-61215000D03*
%TO.P,U2,18,MTDO*%
%TO.N,unconnected-(U1-MTDO-Pad18)*%
X33408000Y-58675000D03*
%TO.P,U2,19,CHIP_EN*%
%TO.N,unconnected-(U1-CHIP_EN-Pad19)*%
X35948000Y-61215000D03*
%TO.P,U2,20,GND*%
%TO.N,GND*%
X35948000Y-58675000D03*
%TO.P,U2,21,MTMS*%
%TO.N,unconnected-(U1-MTMS-Pad21)*%
X38488000Y-61215000D03*
%TO.P,U2,22,MTCK*%
%TO.N,unconnected-(U1-MTCK-Pad22)*%
X38488000Y-58675000D03*
%TD*%
D21*
%TO.N,GND*%
X63500000Y-73000000D03*
X36000000Y-57000000D03*
X37000000Y-49500000D03*
X55000000Y-68500000D03*
X38500000Y-64500000D03*
%TD*%
D22*
%TO.N,+12V*%
X67500000Y-51880000D02*
X61110000Y-58270000D01*
X61110000Y-58270000D02*
X59967500Y-58270000D01*
%TO.N,GND*%
X54687500Y-66950000D02*
X54687500Y-68187500D01*
X38610000Y-64390000D02*
X38500000Y-64500000D01*
X35948000Y-57052000D02*
X36000000Y-57000000D01*
X54687500Y-68187500D02*
X55000000Y-68500000D01*
X36960000Y-49540000D02*
X37000000Y-49500000D01*
X35948000Y-58675000D02*
X35948000Y-57052000D01*
X39753000Y-64390000D02*
X38610000Y-64390000D01*
X63000000Y-72500000D02*
X63500000Y-73000000D01*
X36960000Y-51835000D02*
X36960000Y-49540000D01*
X61000000Y-72500000D02*
X63000000Y-72500000D01*
%TO.N,Net-(U1-GPIO2_A0_D0)*%
X54272943Y-70077000D02*
X36497000Y-70077000D01*
X56587500Y-67762443D02*
X54272943Y-70077000D01*
X36497000Y-70077000D02*
X34420000Y-68000000D01*
X56587500Y-66950000D02*
X58262500Y-66950000D01*
X56587500Y-66950000D02*
X56587500Y-67762443D01*
%TO.N,SENSOR_FUEL_LEVEL*%
X61675000Y-67000000D02*
X60137500Y-67000000D01*
X67500000Y-56960000D02*
X61675000Y-62785000D01*
X61625000Y-66950000D02*
X61675000Y-67000000D01*
X60137500Y-67000000D02*
X60087500Y-66950000D01*
X61675000Y-62785000D02*
X61675000Y-67000000D01*
%TO.N,SENSOR_FUEL_FLOW*%
X67500000Y-54420000D02*
X62420000Y-59500000D01*
X50499058Y-69676000D02*
X38636000Y-69676000D01*
X38636000Y-69676000D02*
X36960000Y-68000000D01*
X50961000Y-69214058D02*
X50499058Y-69676000D01*
X59191340Y-59500000D02*
X50961000Y-67730340D01*
X62420000Y-59500000D02*
X59191340Y-59500000D01*
X50961000Y-67730340D02*
X50961000Y-69214058D01*
%TD*%
%TA.AperFunction,Conductor*%
%TO.N,+5V*%
G36*
X69442539Y-45520185D02*
G01*
X69488294Y-45572989D01*
X69499500Y-45624500D01*
X69499500Y-74375500D01*
X69479815Y-74442539D01*
X69427011Y-74488294D01*
X69375500Y-74499500D01*
X30624500Y-74499500D01*
X30557461Y-74479815D01*
X30511706Y-74427011D01*
X30500500Y-74375500D01*
X30500500Y-72393713D01*
X31149500Y-72393713D01*
X31149500Y-72606287D01*
X31182754Y-72816243D01*
X31216841Y-72921153D01*
X31248444Y-73018414D01*
X31344951Y-73207820D01*
X31469890Y-73379786D01*
X31620213Y-73530109D01*
X31792179Y-73655048D01*
X31792181Y-73655049D01*
X31792184Y-73655051D01*
X31981588Y-73751557D01*
X32183757Y-73817246D01*
X32393713Y-73850500D01*
X32393714Y-73850500D01*
X32606286Y-73850500D01*
X32606287Y-73850500D01*
X32816243Y-73817246D01*
X33018412Y-73751557D01*
X33207816Y-73655051D01*
X33253602Y-73621786D01*
X33379786Y-73530109D01*
X33379788Y-73530106D01*
X33379792Y-73530104D01*
X33530104Y-73379792D01*
X33530106Y-73379788D01*
X33530109Y-73379786D01*
X33655048Y-73207820D01*
X33655047Y-73207820D01*
X33655051Y-73207816D01*
X33736561Y-73047844D01*
X56000000Y-73047844D01*
X56006401Y-73107372D01*
X56006403Y-73107379D01*
X56056645Y-73242086D01*
X56056649Y-73242093D01*
X56142809Y-73357187D01*
X56142812Y-73357190D01*
X56257906Y-73443350D01*
X56257913Y-73443354D01*
X56392620Y-73493596D01*
X56392627Y-73493598D01*
X56452155Y-73499999D01*
X56452172Y-73500000D01*
X57250000Y-73500000D01*
X57750000Y-73500000D01*
X58547828Y-73500000D01*
X58547844Y-73499999D01*
X58607372Y-73493598D01*
X58607379Y-73493596D01*
X58742086Y-73443354D01*
X58742093Y-73443350D01*
X58857187Y-73357190D01*
X58857190Y-73357187D01*
X58943350Y-73242093D01*
X58943354Y-73242086D01*
X58993596Y-73107379D01*
X58993598Y-73107372D01*
X58999999Y-73047844D01*
X59000000Y-73047827D01*
X59000000Y-72250000D01*
X57750000Y-72250000D01*
X57750000Y-73500000D01*
X57250000Y-73500000D01*
X57250000Y-72250000D01*
X56000000Y-72250000D01*
X56000000Y-73047844D01*
X33736561Y-73047844D01*
X33751557Y-73018412D01*
X33817246Y-72816243D01*
X33850500Y-72606287D01*
X33850500Y-72393713D01*
X33817246Y-72183757D01*
X33751557Y-71981588D01*
X33655051Y-71792184D01*
X33655049Y-71792181D01*
X33655048Y-71792179D01*
X33530109Y-71620213D01*
X33379786Y-71469890D01*
X33207820Y-71344951D01*
X33018414Y-71248444D01*
X33018413Y-71248443D01*
X33018412Y-71248443D01*
X32816243Y-71182754D01*
X32816241Y-71182753D01*
X32816240Y-71182753D01*
X32654957Y-71157208D01*
X32606287Y-71149500D01*
X32393713Y-71149500D01*
X32345042Y-71157208D01*
X32183760Y-71182753D01*
X31981585Y-71248444D01*
X31792179Y-71344951D01*
X31620213Y-71469890D01*
X31469890Y-71620213D01*
X31344951Y-71792179D01*
X31248444Y-71981585D01*
X31182753Y-72183760D01*
X31165830Y-72290609D01*
X31149500Y-72393713D01*
X30500500Y-72393713D01*
X30500500Y-70952155D01*
X56000000Y-70952155D01*
X56000000Y-71750000D01*
X57250000Y-71750000D01*
X57750000Y-71750000D01*
X59000000Y-71750000D01*
X59000000Y-70952164D01*
X58999997Y-70952135D01*
X59499500Y-70952135D01*
X59499500Y-73047870D01*
X59499501Y-73047876D01*
X59505908Y-73107483D01*
X59556202Y-73242328D01*
X59556206Y-73242335D01*
X59642452Y-73357544D01*
X59642455Y-73357547D01*
X59757664Y-73443793D01*
X59757671Y-73443797D01*
X59892517Y-73494091D01*
X59892516Y-73494091D01*
X59899444Y-73494835D01*
X59952127Y-73500500D01*
X62047872Y-73500499D01*
X62107483Y-73494091D01*
X62242331Y-73443796D01*
X62357546Y-73357546D01*
X62443796Y-73242331D01*
X62466609Y-73181167D01*
X62479878Y-73163440D01*
X62489078Y-73143297D01*
X62500408Y-73136015D01*
X62508480Y-73125233D01*
X62529228Y-73117494D01*
X62547856Y-73105523D01*
X62569772Y-73102371D01*
X62573944Y-73100816D01*
X62582791Y-73100500D01*
X62602044Y-73100500D01*
X62669083Y-73120185D01*
X62714838Y-73172989D01*
X62723661Y-73200309D01*
X62730261Y-73233489D01*
X62730264Y-73233501D01*
X62790602Y-73379172D01*
X62790609Y-73379185D01*
X62878210Y-73510288D01*
X62878213Y-73510292D01*
X62989707Y-73621786D01*
X62989711Y-73621789D01*
X63120814Y-73709390D01*
X63120827Y-73709397D01*
X63222607Y-73751555D01*
X63266503Y-73769737D01*
X63421153Y-73800499D01*
X63421156Y-73800500D01*
X63421158Y-73800500D01*
X63578844Y-73800500D01*
X63578845Y-73800499D01*
X63733497Y-73769737D01*
X63879179Y-73709394D01*
X64010289Y-73621789D01*
X64121789Y-73510289D01*
X64209394Y-73379179D01*
X64269737Y-73233497D01*
X64300500Y-73078842D01*
X64300500Y-72921158D01*
X64300500Y-72921155D01*
X64300499Y-72921153D01*
X64269738Y-72766510D01*
X64269737Y-72766503D01*
X64269735Y-72766498D01*
X64209397Y-72620827D01*
X64209390Y-72620814D01*
X64121789Y-72489711D01*
X64121786Y-72489707D01*
X64025792Y-72393713D01*
X66149500Y-72393713D01*
X66149500Y-72606287D01*
X66182754Y-72816243D01*
X66216841Y-72921153D01*
X66248444Y-73018414D01*
X66344951Y-73207820D01*
X66469890Y-73379786D01*
X66620213Y-73530109D01*
X66792179Y-73655048D01*
X66792181Y-73655049D01*
X66792184Y-73655051D01*
X66981588Y-73751557D01*
X67183757Y-73817246D01*
X67393713Y-73850500D01*
X67393714Y-73850500D01*
X67606286Y-73850500D01*
X67606287Y-73850500D01*
X67816243Y-73817246D01*
X68018412Y-73751557D01*
X68207816Y-73655051D01*
X68253602Y-73621786D01*
X68379786Y-73530109D01*
X68379788Y-73530106D01*
X68379792Y-73530104D01*
X68530104Y-73379792D01*
X68530106Y-73379788D01*
X68530109Y-73379786D01*
X68655048Y-73207820D01*
X68655047Y-73207820D01*
X68655051Y-73207816D01*
X68751557Y-73018412D01*
X68817246Y-72816243D01*
X68850500Y-72606287D01*
X68850500Y-72393713D01*
X68817246Y-72183757D01*
X68751557Y-71981588D01*
X68655051Y-71792184D01*
X68655049Y-71792181D01*
X68655048Y-71792179D01*
X68530109Y-71620213D01*
X68379786Y-71469890D01*
X68207820Y-71344951D01*
X68018414Y-71248444D01*
X68018413Y-71248443D01*
X68018412Y-71248443D01*
X67816243Y-71182754D01*
X67816241Y-71182753D01*
X67816240Y-71182753D01*
X67654957Y-71157208D01*
X67606287Y-71149500D01*
X67393713Y-71149500D01*
X67345042Y-71157208D01*
X67183760Y-71182753D01*
X66981585Y-71248444D01*
X66792179Y-71344951D01*
X66620213Y-71469890D01*
X66469890Y-71620213D01*
X66344951Y-71792179D01*
X66248444Y-71981585D01*
X66182753Y-72183760D01*
X66165830Y-72290609D01*
X66149500Y-72393713D01*
X64025792Y-72393713D01*
X64010292Y-72378213D01*
X64010288Y-72378210D01*
X63879185Y-72290609D01*
X63879172Y-72290602D01*
X63733501Y-72230264D01*
X63733491Y-72230261D01*
X63578151Y-72199362D01*
X63561394Y-72190596D01*
X63542916Y-72186577D01*
X63517875Y-72167831D01*
X63516241Y-72166977D01*
X63514664Y-72165428D01*
X63514660Y-72165425D01*
X63480520Y-72131284D01*
X63368717Y-72019481D01*
X63368716Y-72019480D01*
X63281904Y-71969360D01*
X63281904Y-71969359D01*
X63281900Y-71969358D01*
X63231785Y-71940423D01*
X63079057Y-71899499D01*
X62920943Y-71899499D01*
X62913347Y-71899499D01*
X62913331Y-71899500D01*
X62624499Y-71899500D01*
X62557460Y-71879815D01*
X62511705Y-71827011D01*
X62500499Y-71775500D01*
X62500499Y-70952129D01*
X62500498Y-70952123D01*
X62500497Y-70952116D01*
X62494091Y-70892517D01*
X62443884Y-70757906D01*
X62443797Y-70757671D01*
X62443793Y-70757664D01*
X62357547Y-70642455D01*
X62357544Y-70642452D01*
X62242335Y-70556206D01*
X62242328Y-70556202D01*
X62107482Y-70505908D01*
X62107483Y-70505908D01*
X62047883Y-70499501D01*
X62047881Y-70499500D01*
X62047873Y-70499500D01*
X62047864Y-70499500D01*
X59952129Y-70499500D01*
X59952123Y-70499501D01*
X59892516Y-70505908D01*
X59757671Y-70556202D01*
X59757664Y-70556206D01*
X59642455Y-70642452D01*
X59642452Y-70642455D01*
X59556206Y-70757664D01*
X59556202Y-70757671D01*
X59505908Y-70892517D01*
X59499501Y-70952116D01*
X59499501Y-70952123D01*
X59499500Y-70952135D01*
X58999997Y-70952135D01*
X58993598Y-70892627D01*
X58993596Y-70892620D01*
X58943354Y-70757913D01*
X58943350Y-70757906D01*
X58857190Y-70642812D01*
X58857187Y-70642809D01*
X58742093Y-70556649D01*
X58742086Y-70556645D01*
X58607379Y-70506403D01*
X58607372Y-70506401D01*
X58547844Y-70500000D01*
X57750000Y-70500000D01*
X57750000Y-71750000D01*
X57250000Y-71750000D01*
X57250000Y-70500000D01*
X56452155Y-70500000D01*
X56392627Y-70506401D01*
X56392620Y-70506403D01*
X56257913Y-70556645D01*
X56257906Y-70556649D01*
X56142812Y-70642809D01*
X56142809Y-70642812D01*
X56056649Y-70757906D01*
X56056645Y-70757913D01*
X56006403Y-70892620D01*
X56006401Y-70892627D01*
X56000000Y-70952155D01*
X30500500Y-70952155D01*
X30500500Y-67066966D01*
X32919500Y-67066966D01*
X32919500Y-68933028D01*
X32919501Y-68933034D01*
X32930113Y-69052415D01*
X32986089Y-69248045D01*
X32986090Y-69248048D01*
X32986091Y-69248049D01*
X33080302Y-69428407D01*
X33103466Y-69456815D01*
X33208890Y-69586109D01*
X33302803Y-69662684D01*
X33366593Y-69714698D01*
X33546951Y-69808909D01*
X33546953Y-69808909D01*
X33546954Y-69808910D01*
X33566355Y-69814461D01*
X33742582Y-69864886D01*
X33861963Y-69875500D01*
X34978036Y-69875499D01*
X35097418Y-69864886D01*
X35290225Y-69809717D01*
X35360091Y-69810200D01*
X35412016Y-69841252D01*
X36128284Y-70557520D01*
X36128286Y-70557521D01*
X36128290Y-70557524D01*
X36265209Y-70636573D01*
X36265216Y-70636577D01*
X36417943Y-70677501D01*
X36417945Y-70677501D01*
X36583654Y-70677501D01*
X36583670Y-70677500D01*
X54186274Y-70677500D01*
X54186290Y-70677501D01*
X54193886Y-70677501D01*
X54351997Y-70677501D01*
X54352000Y-70677501D01*
X54504728Y-70636577D01*
X54554847Y-70607639D01*
X54641659Y-70557520D01*
X54753463Y-70445716D01*
X54753463Y-70445714D01*
X54763671Y-70435507D01*
X54763673Y-70435504D01*
X56956213Y-68242964D01*
X56956216Y-68242963D01*
X57035149Y-68164028D01*
X57035159Y-68164023D01*
X57083824Y-68134006D01*
X57156834Y-68109814D01*
X57306156Y-68017712D01*
X57343569Y-67980299D01*
X57404892Y-67946814D01*
X57474584Y-67951798D01*
X57518931Y-67980299D01*
X57531344Y-67992712D01*
X57680666Y-68084814D01*
X57847203Y-68139999D01*
X57949991Y-68150500D01*
X58575008Y-68150499D01*
X58575016Y-68150498D01*
X58575019Y-68150498D01*
X58631302Y-68144748D01*
X58677797Y-68139999D01*
X58844334Y-68084814D01*
X58993656Y-67992712D01*
X59087319Y-67899049D01*
X59148642Y-67865564D01*
X59218334Y-67870548D01*
X59262681Y-67899049D01*
X59356344Y-67992712D01*
X59505666Y-68084814D01*
X59672203Y-68139999D01*
X59774991Y-68150500D01*
X60400008Y-68150499D01*
X60400016Y-68150498D01*
X60400019Y-68150498D01*
X60456302Y-68144748D01*
X60502797Y-68139999D01*
X60669334Y-68084814D01*
X60781713Y-68015498D01*
X60849104Y-67997059D01*
X60915767Y-68017982D01*
X60934489Y-68033357D01*
X60943844Y-68042712D01*
X61093166Y-68134814D01*
X61259703Y-68189999D01*
X61362491Y-68200500D01*
X61987508Y-68200499D01*
X61987516Y-68200498D01*
X61987519Y-68200498D01*
X62043802Y-68194748D01*
X62090297Y-68189999D01*
X62256834Y-68134814D01*
X62406156Y-68042712D01*
X62500175Y-67948692D01*
X62561494Y-67915210D01*
X62631186Y-67920194D01*
X62675534Y-67948695D01*
X62769154Y-68042315D01*
X62918375Y-68134356D01*
X62918380Y-68134358D01*
X63084802Y-68189505D01*
X63084809Y-68189506D01*
X63187519Y-68199999D01*
X63750000Y-68199999D01*
X63812472Y-68199999D01*
X63812486Y-68199998D01*
X63915197Y-68189505D01*
X64081619Y-68134358D01*
X64081624Y-68134356D01*
X64230845Y-68042315D01*
X64354815Y-67918345D01*
X64446856Y-67769124D01*
X64446858Y-67769119D01*
X64502005Y-67602697D01*
X64502006Y-67602690D01*
X64512499Y-67499986D01*
X64512500Y-67499973D01*
X64512500Y-67250000D01*
X63750000Y-67250000D01*
X63750000Y-68199999D01*
X63187519Y-68199999D01*
X63249999Y-68199998D01*
X63250000Y-68199998D01*
X63250000Y-66750000D01*
X63750000Y-66750000D01*
X64512499Y-66750000D01*
X64512499Y-66500028D01*
X64512498Y-66500013D01*
X64502005Y-66397302D01*
X64446858Y-66230880D01*
X64446856Y-66230875D01*
X64354815Y-66081654D01*
X64230845Y-65957684D01*
X64081624Y-65865643D01*
X64081619Y-65865641D01*
X63915197Y-65810494D01*
X63915190Y-65810493D01*
X63812486Y-65800000D01*
X63750000Y-65800000D01*
X63750000Y-66750000D01*
X63250000Y-66750000D01*
X63250000Y-65800000D01*
X63249999Y-65799999D01*
X63187528Y-65800000D01*
X63187511Y-65800001D01*
X63084802Y-65810494D01*
X62918380Y-65865641D01*
X62918375Y-65865643D01*
X62769157Y-65957682D01*
X62675534Y-66051305D01*
X62672743Y-66052828D01*
X62671085Y-66055538D01*
X62642284Y-66069459D01*
X62614210Y-66084789D01*
X62611041Y-66084562D01*
X62608179Y-66085946D01*
X62576429Y-66082087D01*
X62544519Y-66079805D01*
X62541026Y-66077784D01*
X62538820Y-66077516D01*
X62528690Y-66070646D01*
X62508718Y-66059089D01*
X62504269Y-66055401D01*
X62406156Y-65957288D01*
X62327034Y-65908485D01*
X62320365Y-65902957D01*
X62305483Y-65880877D01*
X62287678Y-65861081D01*
X62285407Y-65851090D01*
X62281315Y-65845018D01*
X62281026Y-65831809D01*
X62275500Y-65807491D01*
X62275500Y-63085096D01*
X62295185Y-63018057D01*
X62311814Y-62997420D01*
X65937821Y-59371412D01*
X65999142Y-59337929D01*
X66068834Y-59342913D01*
X66124767Y-59384785D01*
X66149184Y-59450249D01*
X66149500Y-59459095D01*
X66149500Y-60397870D01*
X66149501Y-60397876D01*
X66155908Y-60457483D01*
X66206202Y-60592328D01*
X66206206Y-60592335D01*
X66292452Y-60707544D01*
X66292455Y-60707547D01*
X66407664Y-60793793D01*
X66407671Y-60793797D01*
X66542517Y-60844091D01*
X66542516Y-60844091D01*
X66549444Y-60844835D01*
X66602127Y-60850500D01*
X68397872Y-60850499D01*
X68457483Y-60844091D01*
X68592331Y-60793796D01*
X68707546Y-60707546D01*
X68793796Y-60592331D01*
X68844091Y-60457483D01*
X68850500Y-60397873D01*
X68850499Y-58602128D01*
X68844091Y-58542517D01*
X68793796Y-58407669D01*
X68793795Y-58407668D01*
X68793793Y-58407664D01*
X68707547Y-58292455D01*
X68707544Y-58292452D01*
X68592335Y-58206206D01*
X68592328Y-58206202D01*
X68460917Y-58157189D01*
X68404983Y-58115318D01*
X68380566Y-58049853D01*
X68395418Y-57981580D01*
X68416563Y-57953332D01*
X68530104Y-57839792D01*
X68655051Y-57667816D01*
X68751557Y-57478412D01*
X68817246Y-57276243D01*
X68850500Y-57066287D01*
X68850500Y-56853713D01*
X68817246Y-56643757D01*
X68751557Y-56441588D01*
X68655051Y-56252184D01*
X68655049Y-56252181D01*
X68655048Y-56252179D01*
X68530109Y-56080213D01*
X68379786Y-55929890D01*
X68207820Y-55804951D01*
X68207115Y-55804591D01*
X68199054Y-55800485D01*
X68148259Y-55752512D01*
X68131463Y-55684692D01*
X68153999Y-55618556D01*
X68199054Y-55579515D01*
X68207816Y-55575051D01*
X68229789Y-55559086D01*
X68379786Y-55450109D01*
X68379788Y-55450106D01*
X68379792Y-55450104D01*
X68530104Y-55299792D01*
X68530106Y-55299788D01*
X68530109Y-55299786D01*
X68655048Y-55127820D01*
X68655047Y-55127820D01*
X68655051Y-55127816D01*
X68751557Y-54938412D01*
X68817246Y-54736243D01*
X68850500Y-54526287D01*
X68850500Y-54313713D01*
X68817246Y-54103757D01*
X68751557Y-53901588D01*
X68655051Y-53712184D01*
X68655049Y-53712181D01*
X68655048Y-53712179D01*
X68530109Y-53540213D01*
X68379786Y-53389890D01*
X68207820Y-53264951D01*
X68207115Y-53264591D01*
X68199054Y-53260485D01*
X68148259Y-53212512D01*
X68131463Y-53144692D01*
X68153999Y-53078556D01*
X68199054Y-53039515D01*
X68207816Y-53035051D01*
X68229789Y-53019086D01*
X68379786Y-52910109D01*
X68379788Y-52910106D01*
X68379792Y-52910104D01*
X68530104Y-52759792D01*
X68530106Y-52759788D01*
X68530109Y-52759786D01*
X68655048Y-52587820D01*
X68655047Y-52587820D01*
X68655051Y-52587816D01*
X68751557Y-52398412D01*
X68817246Y-52196243D01*
X68850500Y-51986287D01*
X68850500Y-51773713D01*
X68817246Y-51563757D01*
X68751557Y-51361588D01*
X68655051Y-51172184D01*
X68655049Y-51172181D01*
X68655048Y-51172179D01*
X68530109Y-51000213D01*
X68379786Y-50849890D01*
X68207820Y-50724951D01*
X68018414Y-50628444D01*
X68018413Y-50628443D01*
X68018412Y-50628443D01*
X67816243Y-50562754D01*
X67816241Y-50562753D01*
X67816240Y-50562753D01*
X67654957Y-50537208D01*
X67606287Y-50529500D01*
X67393713Y-50529500D01*
X67345042Y-50537208D01*
X67183760Y-50562753D01*
X66981585Y-50628444D01*
X66792179Y-50724951D01*
X66620213Y-50849890D01*
X66469890Y-51000213D01*
X66344951Y-51172179D01*
X66248444Y-51361585D01*
X66182753Y-51563760D01*
X66160928Y-51701558D01*
X66149500Y-51773713D01*
X66149500Y-51986287D01*
X66157838Y-52038931D01*
X66182754Y-52196244D01*
X66182754Y-52196247D01*
X66196491Y-52238523D01*
X66198486Y-52308364D01*
X66166241Y-52364522D01*
X61192116Y-57338647D01*
X61130793Y-57372132D01*
X61061101Y-57367148D01*
X61016754Y-57338647D01*
X60879863Y-57201756D01*
X60879858Y-57201752D01*
X60740245Y-57100318D01*
X60697579Y-57044989D01*
X60691600Y-56975375D01*
X60724205Y-56913580D01*
X60740245Y-56899682D01*
X60871410Y-56804385D01*
X60879865Y-56798242D01*
X61035742Y-56642365D01*
X61165315Y-56464022D01*
X61265395Y-56267606D01*
X61333515Y-56057951D01*
X61368000Y-55840222D01*
X61368000Y-55619778D01*
X61333515Y-55402049D01*
X61265395Y-55192394D01*
X61265395Y-55192393D01*
X61230737Y-55124375D01*
X61165315Y-54995978D01*
X61098869Y-54904522D01*
X61035747Y-54817641D01*
X61035743Y-54817636D01*
X60879863Y-54661756D01*
X60879858Y-54661752D01*
X60739819Y-54560008D01*
X60697153Y-54504678D01*
X60691174Y-54435065D01*
X60723779Y-54373270D01*
X60739819Y-54359372D01*
X60765013Y-54341066D01*
X60765014Y-54341066D01*
X60096909Y-53672962D01*
X60160493Y-53655925D01*
X60274507Y-53590099D01*
X60367599Y-53497007D01*
X60433425Y-53382993D01*
X60450462Y-53319410D01*
X61118566Y-53987514D01*
X61118566Y-53987513D01*
X61164886Y-53923760D01*
X61264932Y-53727410D01*
X61333026Y-53517835D01*
X61367500Y-53300181D01*
X61367500Y-53079818D01*
X61333026Y-52862164D01*
X61264932Y-52652589D01*
X61164888Y-52456243D01*
X61118566Y-52392485D01*
X61118565Y-52392485D01*
X60450462Y-53060589D01*
X60433425Y-52997007D01*
X60367599Y-52882993D01*
X60274507Y-52789901D01*
X60160493Y-52724075D01*
X60096907Y-52707037D01*
X60765013Y-52038932D01*
X60701256Y-51992611D01*
X60504910Y-51892567D01*
X60295335Y-51824473D01*
X60077681Y-51790000D01*
X59857319Y-51790000D01*
X59639664Y-51824473D01*
X59430089Y-51892567D01*
X59233733Y-51992616D01*
X59169985Y-52038931D01*
X59169985Y-52038932D01*
X59838090Y-52707037D01*
X59774507Y-52724075D01*
X59660493Y-52789901D01*
X59567401Y-52882993D01*
X59501575Y-52997007D01*
X59484537Y-53060590D01*
X58816432Y-52392485D01*
X58816431Y-52392485D01*
X58770116Y-52456233D01*
X58670067Y-52652589D01*
X58601973Y-52862164D01*
X58567500Y-53079818D01*
X58567500Y-53300181D01*
X58601973Y-53517835D01*
X58670067Y-53727410D01*
X58770111Y-53923756D01*
X58816432Y-53987513D01*
X59484537Y-53319408D01*
X59501575Y-53382993D01*
X59567401Y-53497007D01*
X59660493Y-53590099D01*
X59774507Y-53655925D01*
X59838090Y-53672962D01*
X59169985Y-54341065D01*
X59169985Y-54341066D01*
X59195180Y-54359371D01*
X59237846Y-54414701D01*
X59243825Y-54484314D01*
X59211220Y-54546110D01*
X59195181Y-54560008D01*
X59055136Y-54661756D01*
X58899256Y-54817636D01*
X58899252Y-54817641D01*
X58769687Y-54995974D01*
X58669604Y-55192393D01*
X58669603Y-55192396D01*
X58601485Y-55402047D01*
X58567000Y-55619778D01*
X58567000Y-55840221D01*
X58601485Y-56057952D01*
X58669603Y-56267603D01*
X58669604Y-56267606D01*
X58769687Y-56464025D01*
X58899252Y-56642358D01*
X58899256Y-56642363D01*
X59055136Y-56798243D01*
X59055141Y-56798247D01*
X59194754Y-56899682D01*
X59237420Y-56955012D01*
X59243399Y-57024625D01*
X59210793Y-57086420D01*
X59194754Y-57100318D01*
X59055141Y-57201752D01*
X59055136Y-57201756D01*
X58899256Y-57357636D01*
X58899252Y-57357641D01*
X58769687Y-57535974D01*
X58669604Y-57732393D01*
X58669603Y-57732396D01*
X58601485Y-57942047D01*
X58588071Y-58026742D01*
X58567000Y-58159778D01*
X58567000Y-58380222D01*
X58571347Y-58407669D01*
X58601485Y-58597952D01*
X58669603Y-58807603D01*
X58669604Y-58807606D01*
X58751870Y-58969059D01*
X58756431Y-58993347D01*
X58765068Y-59016498D01*
X58762766Y-59027081D01*
X58764766Y-59037728D01*
X58755472Y-59060625D01*
X58750222Y-59084772D01*
X58740282Y-59098050D01*
X58738490Y-59102468D01*
X58729073Y-59113028D01*
X58710825Y-59131279D01*
X58710821Y-59131280D01*
X58710818Y-59131286D01*
X51212025Y-66630078D01*
X51150702Y-66663563D01*
X51081010Y-66658579D01*
X51025077Y-66616707D01*
X51014440Y-66599816D01*
X50999698Y-66571593D01*
X50975958Y-66542479D01*
X50871109Y-66413890D01*
X50713409Y-66285304D01*
X50713410Y-66285304D01*
X50713407Y-66285302D01*
X50533049Y-66191091D01*
X50533048Y-66191090D01*
X50533045Y-66191089D01*
X50409244Y-66155666D01*
X50337418Y-66135114D01*
X50337415Y-66135113D01*
X50337413Y-66135113D01*
X50271102Y-66129217D01*
X50218037Y-66124500D01*
X50218032Y-66124500D01*
X49101971Y-66124500D01*
X49101965Y-66124500D01*
X49101964Y-66124501D01*
X49090316Y-66125536D01*
X48982584Y-66135113D01*
X48786954Y-66191089D01*
X48767035Y-66201494D01*
X48606593Y-66285302D01*
X48606591Y-66285303D01*
X48606590Y-66285304D01*
X48468361Y-66398015D01*
X48403964Y-66425124D01*
X48335135Y-66413115D01*
X48311639Y-66398015D01*
X48218664Y-66322204D01*
X48173407Y-66285302D01*
X47993049Y-66191091D01*
X47993048Y-66191090D01*
X47993045Y-66191089D01*
X47869244Y-66155666D01*
X47797418Y-66135114D01*
X47797415Y-66135113D01*
X47797413Y-66135113D01*
X47731102Y-66129217D01*
X47678037Y-66124500D01*
X47678032Y-66124500D01*
X46561971Y-66124500D01*
X46561965Y-66124500D01*
X46561964Y-66124501D01*
X46550316Y-66125536D01*
X46442584Y-66135113D01*
X46246954Y-66191089D01*
X46227035Y-66201494D01*
X46066593Y-66285302D01*
X46066591Y-66285303D01*
X46066590Y-66285304D01*
X45928361Y-66398015D01*
X45863964Y-66425124D01*
X45795135Y-66413115D01*
X45771639Y-66398015D01*
X45678664Y-66322204D01*
X45633407Y-66285302D01*
X45453049Y-66191091D01*
X45453048Y-66191090D01*
X45453045Y-66191089D01*
X45329244Y-66155666D01*
X45257418Y-66135114D01*
X45257415Y-66135113D01*
X45257413Y-66135113D01*
X45191102Y-66129217D01*
X45138037Y-66124500D01*
X45138032Y-66124500D01*
X44021971Y-66124500D01*
X44021965Y-66124500D01*
X44021964Y-66124501D01*
X44010316Y-66125536D01*
X43902584Y-66135113D01*
X43706954Y-66191089D01*
X43687035Y-66201494D01*
X43526593Y-66285302D01*
X43526591Y-66285303D01*
X43526590Y-66285304D01*
X43388361Y-66398015D01*
X43323964Y-66425124D01*
X43255135Y-66413115D01*
X43231639Y-66398015D01*
X43138664Y-66322204D01*
X43093407Y-66285302D01*
X42913049Y-66191091D01*
X42913048Y-66191090D01*
X42913045Y-66191089D01*
X42789244Y-66155666D01*
X42717418Y-66135114D01*
X42717415Y-66135113D01*
X42717413Y-66135113D01*
X42644631Y-66128642D01*
X42598037Y-66124500D01*
X42598033Y-66124500D01*
X42569585Y-66124500D01*
X42502546Y-66104815D01*
X42456791Y-66052011D01*
X42446847Y-65982853D01*
X42475872Y-65919297D01*
X42481904Y-65912819D01*
X42512435Y-65882288D01*
X42543147Y-65851576D01*
X42636122Y-65703606D01*
X42693841Y-65538657D01*
X42708500Y-65408552D01*
X42708500Y-63371448D01*
X42693841Y-63241343D01*
X42636122Y-63076394D01*
X42543147Y-62928424D01*
X42419576Y-62804853D01*
X42271606Y-62711878D01*
X42271605Y-62711877D01*
X42271604Y-62711877D01*
X42106658Y-62654159D01*
X42106648Y-62654157D01*
X41976558Y-62639500D01*
X41976552Y-62639500D01*
X41339448Y-62639500D01*
X41339441Y-62639500D01*
X41209351Y-62654157D01*
X41209341Y-62654159D01*
X41044395Y-62711877D01*
X40896423Y-62804853D01*
X40793181Y-62908096D01*
X40731858Y-62941581D01*
X40662166Y-62936597D01*
X40617819Y-62908096D01*
X40514576Y-62804853D01*
X40366604Y-62711877D01*
X40201658Y-62654159D01*
X40201648Y-62654157D01*
X40071558Y-62639500D01*
X40071552Y-62639500D01*
X39434448Y-62639500D01*
X39434441Y-62639500D01*
X39304351Y-62654157D01*
X39304341Y-62654159D01*
X39139395Y-62711877D01*
X38991423Y-62804853D01*
X38867853Y-62928423D01*
X38774877Y-63076395D01*
X38717159Y-63241341D01*
X38717157Y-63241351D01*
X38702500Y-63371441D01*
X38702500Y-63575500D01*
X38682815Y-63642539D01*
X38630011Y-63688294D01*
X38578500Y-63699500D01*
X38421155Y-63699500D01*
X38266510Y-63730261D01*
X38266498Y-63730264D01*
X38120827Y-63790602D01*
X38120814Y-63790609D01*
X37989711Y-63878210D01*
X37989707Y-63878213D01*
X37878213Y-63989707D01*
X37878210Y-63989711D01*
X37790609Y-64120814D01*
X37790602Y-64120827D01*
X37730264Y-64266498D01*
X37730261Y-64266510D01*
X37699500Y-64421153D01*
X37699500Y-64578846D01*
X37730261Y-64733489D01*
X37730264Y-64733501D01*
X37790602Y-64879172D01*
X37790609Y-64879185D01*
X37878210Y-65010288D01*
X37878213Y-65010292D01*
X37989707Y-65121786D01*
X37989711Y-65121789D01*
X38120814Y-65209390D01*
X38120827Y-65209397D01*
X38266498Y-65269735D01*
X38266503Y-65269737D01*
X38421153Y-65300499D01*
X38421156Y-65300500D01*
X38579512Y-65300500D01*
X38646551Y-65320185D01*
X38692306Y-65372989D01*
X38702732Y-65410617D01*
X38717157Y-65538648D01*
X38717159Y-65538658D01*
X38774877Y-65703604D01*
X38774878Y-65703606D01*
X38846304Y-65817281D01*
X38867853Y-65851576D01*
X38936856Y-65920579D01*
X38970341Y-65981902D01*
X38965357Y-66051594D01*
X38923485Y-66107527D01*
X38860157Y-66131773D01*
X38822584Y-66135113D01*
X38626954Y-66191089D01*
X38607035Y-66201494D01*
X38446593Y-66285302D01*
X38446591Y-66285303D01*
X38446590Y-66285304D01*
X38308361Y-66398015D01*
X38243964Y-66425124D01*
X38175135Y-66413115D01*
X38151639Y-66398015D01*
X38058664Y-66322204D01*
X38013407Y-66285302D01*
X37833049Y-66191091D01*
X37833048Y-66191090D01*
X37833045Y-66191089D01*
X37709244Y-66155666D01*
X37637418Y-66135114D01*
X37637415Y-66135113D01*
X37637413Y-66135113D01*
X37571102Y-66129217D01*
X37518037Y-66124500D01*
X37518032Y-66124500D01*
X36401971Y-66124500D01*
X36401965Y-66124500D01*
X36401964Y-66124501D01*
X36390316Y-66125536D01*
X36282584Y-66135113D01*
X36086954Y-66191089D01*
X36067035Y-66201494D01*
X35906593Y-66285302D01*
X35906591Y-66285303D01*
X35906590Y-66285304D01*
X35768361Y-66398015D01*
X35703964Y-66425124D01*
X35635135Y-66413115D01*
X35611639Y-66398015D01*
X35518664Y-66322204D01*
X35473407Y-66285302D01*
X35293049Y-66191091D01*
X35293048Y-66191090D01*
X35293045Y-66191089D01*
X35169244Y-66155666D01*
X35097418Y-66135114D01*
X35097415Y-66135113D01*
X35097413Y-66135113D01*
X35031102Y-66129217D01*
X34978037Y-66124500D01*
X34978032Y-66124500D01*
X33861971Y-66124500D01*
X33861965Y-66124500D01*
X33861964Y-66124501D01*
X33850316Y-66125536D01*
X33742584Y-66135113D01*
X33546954Y-66191089D01*
X33527035Y-66201494D01*
X33366593Y-66285302D01*
X33366591Y-66285303D01*
X33366590Y-66285304D01*
X33208890Y-66413890D01*
X33080304Y-66571590D01*
X33080302Y-66571593D01*
X33049752Y-66630078D01*
X32986089Y-66751954D01*
X32930114Y-66947583D01*
X32930113Y-66947586D01*
X32919500Y-67066966D01*
X30500500Y-67066966D01*
X30500500Y-58568713D01*
X32057500Y-58568713D01*
X32057500Y-58781287D01*
X32090754Y-58991243D01*
X32145500Y-59159734D01*
X32156444Y-59193414D01*
X32252951Y-59382820D01*
X32377890Y-59554786D01*
X32528213Y-59705109D01*
X32700182Y-59830050D01*
X32708946Y-59834516D01*
X32759742Y-59882491D01*
X32776536Y-59950312D01*
X32753998Y-60016447D01*
X32708946Y-60055484D01*
X32700182Y-60059949D01*
X32528213Y-60184890D01*
X32377890Y-60335213D01*
X32252951Y-60507179D01*
X32156444Y-60696585D01*
X32090753Y-60898760D01*
X32057500Y-61108713D01*
X32057500Y-61321286D01*
X32087390Y-61510008D01*
X32090754Y-61531243D01*
X32117253Y-61612799D01*
X32156444Y-61733414D01*
X32252951Y-61922820D01*
X32377890Y-62094786D01*
X32528213Y-62245109D01*
X32700179Y-62370048D01*
X32700181Y-62370049D01*
X32700184Y-62370051D01*
X32889588Y-62466557D01*
X33091757Y-62532246D01*
X33301713Y-62565500D01*
X33301714Y-62565500D01*
X33514286Y-62565500D01*
X33514287Y-62565500D01*
X33724243Y-62532246D01*
X33926412Y-62466557D01*
X34115816Y-62370051D01*
X34137789Y-62354086D01*
X34287786Y-62245109D01*
X34287788Y-62245106D01*
X34287792Y-62245104D01*
X34438104Y-62094792D01*
X34438106Y-62094788D01*
X34438109Y-62094786D01*
X34563048Y-61922820D01*
X34563047Y-61922820D01*
X34563051Y-61922816D01*
X34567514Y-61914054D01*
X34615488Y-61863259D01*
X34683308Y-61846463D01*
X34749444Y-61868999D01*
X34788486Y-61914056D01*
X34792951Y-61922820D01*
X34917890Y-62094786D01*
X35068213Y-62245109D01*
X35240179Y-62370048D01*
X35240181Y-62370049D01*
X35240184Y-62370051D01*
X35429588Y-62466557D01*
X35631757Y-62532246D01*
X35841713Y-62565500D01*
X35841714Y-62565500D01*
X36054286Y-62565500D01*
X36054287Y-62565500D01*
X36264243Y-62532246D01*
X36466412Y-62466557D01*
X36655816Y-62370051D01*
X36677789Y-62354086D01*
X36827786Y-62245109D01*
X36827788Y-62245106D01*
X36827792Y-62245104D01*
X36978104Y-62094792D01*
X36978106Y-62094788D01*
X36978109Y-62094786D01*
X37103048Y-61922820D01*
X37103047Y-61922820D01*
X37103051Y-61922816D01*
X37107514Y-61914054D01*
X37155488Y-61863259D01*
X37223308Y-61846463D01*
X37289444Y-61868999D01*
X37328486Y-61914056D01*
X37332951Y-61922820D01*
X37457890Y-62094786D01*
X37608213Y-62245109D01*
X37780179Y-62370048D01*
X37780181Y-62370049D01*
X37780184Y-62370051D01*
X37969588Y-62466557D01*
X38171757Y-62532246D01*
X38381713Y-62565500D01*
X38381714Y-62565500D01*
X38594286Y-62565500D01*
X38594287Y-62565500D01*
X38804243Y-62532246D01*
X39006412Y-62466557D01*
X39195816Y-62370051D01*
X39217789Y-62354086D01*
X39367786Y-62245109D01*
X39367788Y-62245106D01*
X39367792Y-62245104D01*
X39518104Y-62094792D01*
X39518106Y-62094788D01*
X39518109Y-62094786D01*
X39643048Y-61922820D01*
X39643047Y-61922820D01*
X39643051Y-61922816D01*
X39739557Y-61733412D01*
X39805246Y-61531243D01*
X39838500Y-61321287D01*
X39838500Y-61108713D01*
X39805246Y-60898757D01*
X39739557Y-60696588D01*
X39643051Y-60507184D01*
X39643049Y-60507181D01*
X39643048Y-60507179D01*
X39518109Y-60335213D01*
X39367786Y-60184890D01*
X39195820Y-60059951D01*
X39195084Y-60059576D01*
X39187054Y-60055485D01*
X39136259Y-60007512D01*
X39119463Y-59939692D01*
X39141999Y-59873556D01*
X39187054Y-59834515D01*
X39195816Y-59830051D01*
X39217789Y-59814086D01*
X39367786Y-59705109D01*
X39367788Y-59705106D01*
X39367792Y-59705104D01*
X39518104Y-59554792D01*
X39518106Y-59554788D01*
X39518109Y-59554786D01*
X39643048Y-59382820D01*
X39643047Y-59382820D01*
X39643051Y-59382816D01*
X39739557Y-59193412D01*
X39805246Y-58991243D01*
X39838500Y-58781287D01*
X39838500Y-58568713D01*
X39805246Y-58358757D01*
X39739557Y-58156588D01*
X39643051Y-57967184D01*
X39643049Y-57967181D01*
X39643048Y-57967179D01*
X39518109Y-57795213D01*
X39367786Y-57644890D01*
X39195820Y-57519951D01*
X39006414Y-57423444D01*
X39006413Y-57423443D01*
X39006412Y-57423443D01*
X38804243Y-57357754D01*
X38804241Y-57357753D01*
X38804240Y-57357753D01*
X38642957Y-57332208D01*
X38594287Y-57324500D01*
X38381713Y-57324500D01*
X38333042Y-57332208D01*
X38171760Y-57357753D01*
X37969585Y-57423444D01*
X37780179Y-57519951D01*
X37608213Y-57644890D01*
X37457890Y-57795213D01*
X37332949Y-57967182D01*
X37328484Y-57975946D01*
X37280509Y-58026742D01*
X37212688Y-58043536D01*
X37146553Y-58020998D01*
X37107516Y-57975946D01*
X37103050Y-57967182D01*
X36978109Y-57795213D01*
X36827790Y-57644894D01*
X36827785Y-57644890D01*
X36725019Y-57570226D01*
X36682353Y-57514896D01*
X36676374Y-57445283D01*
X36694804Y-57401015D01*
X36709388Y-57379188D01*
X36709388Y-57379187D01*
X36709394Y-57379179D01*
X36769737Y-57233497D01*
X36800500Y-57078842D01*
X36800500Y-56921158D01*
X36800500Y-56921155D01*
X36800499Y-56921153D01*
X36787084Y-56853713D01*
X36769737Y-56766503D01*
X36718896Y-56643760D01*
X36709397Y-56620827D01*
X36709390Y-56620814D01*
X36621789Y-56489711D01*
X36621786Y-56489707D01*
X36510292Y-56378213D01*
X36510288Y-56378210D01*
X36379185Y-56290609D01*
X36379172Y-56290602D01*
X36233501Y-56230264D01*
X36233489Y-56230261D01*
X36078845Y-56199500D01*
X36078842Y-56199500D01*
X35921158Y-56199500D01*
X35921155Y-56199500D01*
X35766510Y-56230261D01*
X35766498Y-56230264D01*
X35620827Y-56290602D01*
X35620814Y-56290609D01*
X35489711Y-56378210D01*
X35489707Y-56378213D01*
X35378213Y-56489707D01*
X35378210Y-56489711D01*
X35290609Y-56620814D01*
X35290602Y-56620827D01*
X35230264Y-56766498D01*
X35230261Y-56766510D01*
X35199500Y-56921153D01*
X35199500Y-57078846D01*
X35230261Y-57233489D01*
X35230264Y-57233501D01*
X35286374Y-57368963D01*
X35293843Y-57438432D01*
X35262568Y-57500911D01*
X35243634Y-57516409D01*
X35244125Y-57517085D01*
X35068213Y-57644890D01*
X34917890Y-57795213D01*
X34792949Y-57967182D01*
X34788484Y-57975946D01*
X34740509Y-58026742D01*
X34672688Y-58043536D01*
X34606553Y-58020998D01*
X34567516Y-57975946D01*
X34563050Y-57967182D01*
X34438109Y-57795213D01*
X34287786Y-57644890D01*
X34115820Y-57519951D01*
X33926414Y-57423444D01*
X33926413Y-57423443D01*
X33926412Y-57423443D01*
X33724243Y-57357754D01*
X33724241Y-57357753D01*
X33724240Y-57357753D01*
X33562957Y-57332208D01*
X33514287Y-57324500D01*
X33301713Y-57324500D01*
X33253042Y-57332208D01*
X33091760Y-57357753D01*
X32889585Y-57423444D01*
X32700179Y-57519951D01*
X32528213Y-57644890D01*
X32377890Y-57795213D01*
X32252951Y-57967179D01*
X32156444Y-58156585D01*
X32090753Y-58358760D01*
X32061649Y-58542516D01*
X32057500Y-58568713D01*
X30500500Y-58568713D01*
X30500500Y-50901999D01*
X32920000Y-50901999D01*
X32920000Y-52768000D01*
X32930609Y-52887331D01*
X32949187Y-52952260D01*
X34066448Y-51835000D01*
X32949186Y-50717738D01*
X32930610Y-50782664D01*
X32930609Y-50782669D01*
X32920000Y-50901999D01*
X30500500Y-50901999D01*
X30500500Y-50261061D01*
X33199613Y-50261061D01*
X34509095Y-51570543D01*
X34542580Y-51631866D01*
X34537596Y-51701558D01*
X34509095Y-51745905D01*
X34420000Y-51835000D01*
X34509094Y-51924094D01*
X34542579Y-51985417D01*
X34537595Y-52055109D01*
X34509094Y-52099456D01*
X33199613Y-53408937D01*
X33199613Y-53408938D01*
X33209246Y-53420753D01*
X33366870Y-53549278D01*
X33547138Y-53643442D01*
X33742671Y-53699390D01*
X33742674Y-53699391D01*
X33861999Y-53709999D01*
X33862002Y-53710000D01*
X34977998Y-53710000D01*
X34978000Y-53709999D01*
X35097325Y-53699391D01*
X35097328Y-53699390D01*
X35292861Y-53643442D01*
X35473130Y-53549278D01*
X35611241Y-53436662D01*
X35675637Y-53409552D01*
X35744467Y-53421561D01*
X35767964Y-53436661D01*
X35906593Y-53549698D01*
X36086951Y-53643909D01*
X36282582Y-53699886D01*
X36401963Y-53710500D01*
X37518036Y-53710499D01*
X37637418Y-53699886D01*
X37833049Y-53643909D01*
X38013407Y-53549698D01*
X38151640Y-53436983D01*
X38216035Y-53409875D01*
X38284865Y-53421884D01*
X38308357Y-53436981D01*
X38446593Y-53549698D01*
X38626951Y-53643909D01*
X38822582Y-53699886D01*
X38941963Y-53710500D01*
X40058036Y-53710499D01*
X40177418Y-53699886D01*
X40373049Y-53643909D01*
X40553407Y-53549698D01*
X40691640Y-53436983D01*
X40756035Y-53409875D01*
X40824865Y-53421884D01*
X40848357Y-53436981D01*
X40986593Y-53549698D01*
X41166951Y-53643909D01*
X41362582Y-53699886D01*
X41481963Y-53710500D01*
X42598036Y-53710499D01*
X42717418Y-53699886D01*
X42913049Y-53643909D01*
X43093407Y-53549698D01*
X43231640Y-53436983D01*
X43296035Y-53409875D01*
X43364865Y-53421884D01*
X43388357Y-53436981D01*
X43526593Y-53549698D01*
X43706951Y-53643909D01*
X43902582Y-53699886D01*
X44021963Y-53710500D01*
X45138036Y-53710499D01*
X45257418Y-53699886D01*
X45453049Y-53643909D01*
X45633407Y-53549698D01*
X45771640Y-53436983D01*
X45836035Y-53409875D01*
X45904865Y-53421884D01*
X45928357Y-53436981D01*
X46066593Y-53549698D01*
X46246951Y-53643909D01*
X46442582Y-53699886D01*
X46561963Y-53710500D01*
X47678036Y-53710499D01*
X47797418Y-53699886D01*
X47993049Y-53643909D01*
X48173407Y-53549698D01*
X48311640Y-53436983D01*
X48376035Y-53409875D01*
X48444865Y-53421884D01*
X48468357Y-53436981D01*
X48606593Y-53549698D01*
X48786951Y-53643909D01*
X48982582Y-53699886D01*
X49101963Y-53710500D01*
X50218036Y-53710499D01*
X50337418Y-53699886D01*
X50533049Y-53643909D01*
X50713407Y-53549698D01*
X50871109Y-53421109D01*
X50999698Y-53263407D01*
X51093909Y-53083049D01*
X51149886Y-52887418D01*
X51160500Y-52768037D01*
X51160499Y-51835000D01*
X51160499Y-50901971D01*
X51160499Y-50901964D01*
X51149886Y-50782582D01*
X51093909Y-50586951D01*
X50999698Y-50406593D01*
X50930000Y-50321115D01*
X50871109Y-50248890D01*
X50755933Y-50154977D01*
X50713407Y-50120302D01*
X50533049Y-50026091D01*
X50533048Y-50026090D01*
X50533045Y-50026089D01*
X50415829Y-49992550D01*
X50337418Y-49970114D01*
X50337415Y-49970113D01*
X50337413Y-49970113D01*
X50271102Y-49964217D01*
X50218037Y-49959500D01*
X50218032Y-49959500D01*
X49101971Y-49959500D01*
X49101965Y-49959500D01*
X49101964Y-49959501D01*
X49096351Y-49960000D01*
X48982584Y-49970113D01*
X48786954Y-50026089D01*
X48696772Y-50073196D01*
X48606593Y-50120302D01*
X48606591Y-50120303D01*
X48606590Y-50120304D01*
X48468361Y-50233015D01*
X48403964Y-50260124D01*
X48335135Y-50248115D01*
X48311639Y-50233015D01*
X48248385Y-50181438D01*
X48173407Y-50120302D01*
X47993049Y-50026091D01*
X47993048Y-50026090D01*
X47993045Y-50026089D01*
X47875829Y-49992550D01*
X47797418Y-49970114D01*
X47797415Y-49970113D01*
X47797413Y-49970113D01*
X47731102Y-49964217D01*
X47678037Y-49959500D01*
X47678032Y-49959500D01*
X46561971Y-49959500D01*
X46561965Y-49959500D01*
X46561964Y-49959501D01*
X46556351Y-49960000D01*
X46442584Y-49970113D01*
X46246954Y-50026089D01*
X46156772Y-50073196D01*
X46066593Y-50120302D01*
X46066591Y-50120303D01*
X46066590Y-50120304D01*
X45928361Y-50233015D01*
X45863964Y-50260124D01*
X45795135Y-50248115D01*
X45771639Y-50233015D01*
X45708385Y-50181438D01*
X45633407Y-50120302D01*
X45453049Y-50026091D01*
X45453048Y-50026090D01*
X45453045Y-50026089D01*
X45335829Y-49992550D01*
X45257418Y-49970114D01*
X45257415Y-49970113D01*
X45257413Y-49970113D01*
X45191102Y-49964217D01*
X45138037Y-49959500D01*
X45138032Y-49959500D01*
X44021971Y-49959500D01*
X44021965Y-49959500D01*
X44021964Y-49959501D01*
X44016351Y-49960000D01*
X43902584Y-49970113D01*
X43706954Y-50026089D01*
X43616772Y-50073196D01*
X43526593Y-50120302D01*
X43526591Y-50120303D01*
X43526590Y-50120304D01*
X43388361Y-50233015D01*
X43323964Y-50260124D01*
X43255135Y-50248115D01*
X43231639Y-50233015D01*
X43168385Y-50181438D01*
X43093407Y-50120302D01*
X42913049Y-50026091D01*
X42913048Y-50026090D01*
X42913045Y-50026089D01*
X42795829Y-49992550D01*
X42717418Y-49970114D01*
X42717415Y-49970113D01*
X42717413Y-49970113D01*
X42651102Y-49964217D01*
X42598037Y-49959500D01*
X42598032Y-49959500D01*
X41481971Y-49959500D01*
X41481965Y-49959500D01*
X41481964Y-49959501D01*
X41476351Y-49960000D01*
X41362584Y-49970113D01*
X41166954Y-50026089D01*
X41076772Y-50073196D01*
X40986593Y-50120302D01*
X40986591Y-50120303D01*
X40986590Y-50120304D01*
X40848361Y-50233015D01*
X40783964Y-50260124D01*
X40715135Y-50248115D01*
X40691639Y-50233015D01*
X40628385Y-50181438D01*
X40553407Y-50120302D01*
X40373049Y-50026091D01*
X40373048Y-50026090D01*
X40373045Y-50026089D01*
X40255829Y-49992550D01*
X40177418Y-49970114D01*
X40177415Y-49970113D01*
X40177413Y-49970113D01*
X40111102Y-49964217D01*
X40058037Y-49959500D01*
X40058032Y-49959500D01*
X38941971Y-49959500D01*
X38941965Y-49959500D01*
X38941964Y-49959501D01*
X38936351Y-49960000D01*
X38822584Y-49970113D01*
X38626954Y-50026089D01*
X38536772Y-50073196D01*
X38446593Y-50120302D01*
X38446591Y-50120303D01*
X38446590Y-50120304D01*
X38308361Y-50233015D01*
X38243964Y-50260124D01*
X38175135Y-50248115D01*
X38151639Y-50233015D01*
X38088385Y-50181438D01*
X38013407Y-50120302D01*
X37833049Y-50026091D01*
X37833048Y-50026090D01*
X37833043Y-50026088D01*
X37801736Y-50017130D01*
X37742698Y-49979762D01*
X37713236Y-49916408D01*
X37721287Y-49850465D01*
X37769737Y-49733497D01*
X37800500Y-49578842D01*
X37800500Y-49421158D01*
X37800500Y-49421155D01*
X37800499Y-49421153D01*
X37769738Y-49266510D01*
X37769737Y-49266503D01*
X37769735Y-49266498D01*
X37709397Y-49120827D01*
X37709390Y-49120814D01*
X37621789Y-48989711D01*
X37621786Y-48989707D01*
X37510292Y-48878213D01*
X37510288Y-48878210D01*
X37379185Y-48790609D01*
X37379172Y-48790602D01*
X37233501Y-48730264D01*
X37233489Y-48730261D01*
X37078845Y-48699500D01*
X37078842Y-48699500D01*
X36921158Y-48699500D01*
X36921155Y-48699500D01*
X36766510Y-48730261D01*
X36766498Y-48730264D01*
X36620827Y-48790602D01*
X36620814Y-48790609D01*
X36489711Y-48878210D01*
X36489707Y-48878213D01*
X36378213Y-48989707D01*
X36378210Y-48989711D01*
X36290609Y-49120814D01*
X36290602Y-49120827D01*
X36230264Y-49266498D01*
X36230261Y-49266510D01*
X36199500Y-49421153D01*
X36199500Y-49578846D01*
X36230261Y-49733489D01*
X36230264Y-49733501D01*
X36270234Y-49829998D01*
X36277703Y-49899467D01*
X36246427Y-49961946D01*
X36189785Y-49996666D01*
X36086953Y-50026090D01*
X35906587Y-50120305D01*
X35767963Y-50233338D01*
X35703567Y-50260447D01*
X35634737Y-50248437D01*
X35611242Y-50233338D01*
X35473129Y-50120721D01*
X35292861Y-50026557D01*
X35097328Y-49970609D01*
X35097325Y-49970608D01*
X34978000Y-49960000D01*
X33861999Y-49960000D01*
X33742674Y-49970608D01*
X33742671Y-49970609D01*
X33547138Y-50026557D01*
X33366870Y-50120721D01*
X33209248Y-50249245D01*
X33199613Y-50261061D01*
X30500500Y-50261061D01*
X30500500Y-47393713D01*
X31149500Y-47393713D01*
X31149500Y-47606286D01*
X31182753Y-47816239D01*
X31248444Y-48018414D01*
X31344951Y-48207820D01*
X31469890Y-48379786D01*
X31620213Y-48530109D01*
X31792179Y-48655048D01*
X31792181Y-48655049D01*
X31792184Y-48655051D01*
X31981588Y-48751557D01*
X32183757Y-48817246D01*
X32393713Y-48850500D01*
X32393714Y-48850500D01*
X32606286Y-48850500D01*
X32606287Y-48850500D01*
X32816243Y-48817246D01*
X33018412Y-48751557D01*
X33207816Y-48655051D01*
X33229789Y-48639086D01*
X33379786Y-48530109D01*
X33379788Y-48530106D01*
X33379792Y-48530104D01*
X33530104Y-48379792D01*
X33530106Y-48379788D01*
X33530109Y-48379786D01*
X33655048Y-48207820D01*
X33655047Y-48207820D01*
X33655051Y-48207816D01*
X33751557Y-48018412D01*
X33817246Y-47816243D01*
X33850500Y-47606287D01*
X33850500Y-47393713D01*
X66149500Y-47393713D01*
X66149500Y-47606286D01*
X66182753Y-47816239D01*
X66248444Y-48018414D01*
X66344951Y-48207820D01*
X66469890Y-48379786D01*
X66620213Y-48530109D01*
X66792179Y-48655048D01*
X66792181Y-48655049D01*
X66792184Y-48655051D01*
X66981588Y-48751557D01*
X67183757Y-48817246D01*
X67393713Y-48850500D01*
X67393714Y-48850500D01*
X67606286Y-48850500D01*
X67606287Y-48850500D01*
X67816243Y-48817246D01*
X68018412Y-48751557D01*
X68207816Y-48655051D01*
X68229789Y-48639086D01*
X68379786Y-48530109D01*
X68379788Y-48530106D01*
X68379792Y-48530104D01*
X68530104Y-48379792D01*
X68530106Y-48379788D01*
X68530109Y-48379786D01*
X68655048Y-48207820D01*
X68655047Y-48207820D01*
X68655051Y-48207816D01*
X68751557Y-48018412D01*
X68817246Y-47816243D01*
X68850500Y-47606287D01*
X68850500Y-47393713D01*
X68817246Y-47183757D01*
X68751557Y-46981588D01*
X68655051Y-46792184D01*
X68655049Y-46792181D01*
X68655048Y-46792179D01*
X68530109Y-46620213D01*
X68379786Y-46469890D01*
X68207820Y-46344951D01*
X68018414Y-46248444D01*
X68018413Y-46248443D01*
X68018412Y-46248443D01*
X67816243Y-46182754D01*
X67816241Y-46182753D01*
X67816240Y-46182753D01*
X67654957Y-46157208D01*
X67606287Y-46149500D01*
X67393713Y-46149500D01*
X67345042Y-46157208D01*
X67183760Y-46182753D01*
X66981585Y-46248444D01*
X66792179Y-46344951D01*
X66620213Y-46469890D01*
X66469890Y-46620213D01*
X66344951Y-46792179D01*
X66248444Y-46981585D01*
X66182753Y-47183760D01*
X66149500Y-47393713D01*
X33850500Y-47393713D01*
X33817246Y-47183757D01*
X33751557Y-46981588D01*
X33655051Y-46792184D01*
X33655049Y-46792181D01*
X33655048Y-46792179D01*
X33530109Y-46620213D01*
X33379786Y-46469890D01*
X33207820Y-46344951D01*
X33018414Y-46248444D01*
X33018413Y-46248443D01*
X33018412Y-46248443D01*
X32816243Y-46182754D01*
X32816241Y-46182753D01*
X32816240Y-46182753D01*
X32654957Y-46157208D01*
X32606287Y-46149500D01*
X32393713Y-46149500D01*
X32345042Y-46157208D01*
X32183760Y-46182753D01*
X31981585Y-46248444D01*
X31792179Y-46344951D01*
X31620213Y-46469890D01*
X31469890Y-46620213D01*
X31344951Y-46792179D01*
X31248444Y-46981585D01*
X31182753Y-47183760D01*
X31149500Y-47393713D01*
X30500500Y-47393713D01*
X30500500Y-45624500D01*
X30520185Y-45557461D01*
X30572989Y-45511706D01*
X30624500Y-45500500D01*
X69375500Y-45500500D01*
X69442539Y-45520185D01*
G37*
%TD.AperFunction*%
%TD*%
M02*
