%TF.GenerationSoftware,KiCad,Pcbnew,9.0.6*%
%TF.CreationDate,2025-11-11T11:50:56+01:00*%
%TF.ProjectId,tankuhr,74616e6b-7568-4722-9e6b-696361645f70,rev?*%
%TF.SameCoordinates,Original*%
%TF.FileFunction,Drillmap*%
%TF.FilePolarity,Positive*%
%FSLAX45Y45*%
G04 Gerber Fmt 4.5, Leading zero omitted, Abs format (unit mm)*
G04 Created by KiCad (PCBNEW 9.0.6) date 2025-11-11 11:50:56*
%MOMM*%
%LPD*%
G01*
G04 APERTURE LIST*
%ADD10C,0.050000*%
%ADD11C,0.200000*%
%ADD12C,0.100000*%
G04 APERTURE END LIST*
D10*
X3000000Y-4500000D02*
X7000000Y-4500000D01*
X7000000Y-7500000D01*
X3000000Y-7500000D01*
X3000000Y-4500000D01*
D11*
D12*
X3585000Y-5685000D02*
X3615000Y-5715000D01*
X3615000Y-5685000D02*
X3585000Y-5715000D01*
X3685000Y-4935000D02*
X3715000Y-4965000D01*
X3715000Y-4935000D02*
X3685000Y-4965000D01*
X3835000Y-6435000D02*
X3865000Y-6465000D01*
X3865000Y-6435000D02*
X3835000Y-6465000D01*
X5485000Y-6835000D02*
X5515000Y-6865000D01*
X5515000Y-6835000D02*
X5485000Y-6865000D01*
X6335000Y-7285000D02*
X6365000Y-7315000D01*
X6365000Y-7285000D02*
X6335000Y-7315000D01*
X6046750Y-5319000D02*
G75*
G02*
X5946750Y-5319000I-50000J0D01*
G01*
X5946750Y-5319000D02*
G75*
G02*
X6046750Y-5319000I50000J0D01*
G01*
X6046750Y-5573000D02*
G75*
G02*
X5946750Y-5573000I-50000J0D01*
G01*
X5946750Y-5573000D02*
G75*
G02*
X6046750Y-5573000I50000J0D01*
G01*
X6046750Y-5827000D02*
G75*
G02*
X5946750Y-5827000I-50000J0D01*
G01*
X5946750Y-5827000D02*
G75*
G02*
X6046750Y-5827000I50000J0D01*
G01*
X6046750Y-6081000D02*
G75*
G02*
X5946750Y-6081000I-50000J0D01*
G01*
X5946750Y-6081000D02*
G75*
G02*
X6046750Y-6081000I50000J0D01*
G01*
X6800000Y-5188000D02*
G75*
G02*
X6700000Y-5188000I-50000J0D01*
G01*
X6700000Y-5188000D02*
G75*
G02*
X6800000Y-5188000I50000J0D01*
G01*
X6800000Y-5442000D02*
G75*
G02*
X6700000Y-5442000I-50000J0D01*
G01*
X6700000Y-5442000D02*
G75*
G02*
X6800000Y-5442000I50000J0D01*
G01*
X6800000Y-5696000D02*
G75*
G02*
X6700000Y-5696000I-50000J0D01*
G01*
X6700000Y-5696000D02*
G75*
G02*
X6800000Y-5696000I50000J0D01*
G01*
X6800000Y-5950000D02*
G75*
G02*
X6700000Y-5950000I-50000J0D01*
G01*
X6700000Y-5950000D02*
G75*
G02*
X6800000Y-5950000I50000J0D01*
G01*
D11*
X3258277Y-7813984D02*
X3258277Y-7613984D01*
X3258277Y-7613984D02*
X3305896Y-7613984D01*
X3305896Y-7613984D02*
X3334467Y-7623508D01*
X3334467Y-7623508D02*
X3353515Y-7642555D01*
X3353515Y-7642555D02*
X3363039Y-7661603D01*
X3363039Y-7661603D02*
X3372562Y-7699698D01*
X3372562Y-7699698D02*
X3372562Y-7728269D01*
X3372562Y-7728269D02*
X3363039Y-7766365D01*
X3363039Y-7766365D02*
X3353515Y-7785412D01*
X3353515Y-7785412D02*
X3334467Y-7804460D01*
X3334467Y-7804460D02*
X3305896Y-7813984D01*
X3305896Y-7813984D02*
X3258277Y-7813984D01*
X3458277Y-7813984D02*
X3458277Y-7680650D01*
X3458277Y-7718746D02*
X3467801Y-7699698D01*
X3467801Y-7699698D02*
X3477324Y-7690174D01*
X3477324Y-7690174D02*
X3496372Y-7680650D01*
X3496372Y-7680650D02*
X3515420Y-7680650D01*
X3582086Y-7813984D02*
X3582086Y-7680650D01*
X3582086Y-7613984D02*
X3572562Y-7623508D01*
X3572562Y-7623508D02*
X3582086Y-7633031D01*
X3582086Y-7633031D02*
X3591610Y-7623508D01*
X3591610Y-7623508D02*
X3582086Y-7613984D01*
X3582086Y-7613984D02*
X3582086Y-7633031D01*
X3705896Y-7813984D02*
X3686848Y-7804460D01*
X3686848Y-7804460D02*
X3677324Y-7785412D01*
X3677324Y-7785412D02*
X3677324Y-7613984D01*
X3810658Y-7813984D02*
X3791610Y-7804460D01*
X3791610Y-7804460D02*
X3782086Y-7785412D01*
X3782086Y-7785412D02*
X3782086Y-7613984D01*
X4039229Y-7813984D02*
X4039229Y-7613984D01*
X4039229Y-7613984D02*
X4105896Y-7756841D01*
X4105896Y-7756841D02*
X4172562Y-7613984D01*
X4172562Y-7613984D02*
X4172562Y-7813984D01*
X4353515Y-7813984D02*
X4353515Y-7709222D01*
X4353515Y-7709222D02*
X4343991Y-7690174D01*
X4343991Y-7690174D02*
X4324944Y-7680650D01*
X4324944Y-7680650D02*
X4286848Y-7680650D01*
X4286848Y-7680650D02*
X4267801Y-7690174D01*
X4353515Y-7804460D02*
X4334467Y-7813984D01*
X4334467Y-7813984D02*
X4286848Y-7813984D01*
X4286848Y-7813984D02*
X4267801Y-7804460D01*
X4267801Y-7804460D02*
X4258277Y-7785412D01*
X4258277Y-7785412D02*
X4258277Y-7766365D01*
X4258277Y-7766365D02*
X4267801Y-7747317D01*
X4267801Y-7747317D02*
X4286848Y-7737793D01*
X4286848Y-7737793D02*
X4334467Y-7737793D01*
X4334467Y-7737793D02*
X4353515Y-7728269D01*
X4448753Y-7680650D02*
X4448753Y-7880650D01*
X4448753Y-7690174D02*
X4467801Y-7680650D01*
X4467801Y-7680650D02*
X4505896Y-7680650D01*
X4505896Y-7680650D02*
X4524944Y-7690174D01*
X4524944Y-7690174D02*
X4534467Y-7699698D01*
X4534467Y-7699698D02*
X4543991Y-7718746D01*
X4543991Y-7718746D02*
X4543991Y-7775888D01*
X4543991Y-7775888D02*
X4534467Y-7794936D01*
X4534467Y-7794936D02*
X4524944Y-7804460D01*
X4524944Y-7804460D02*
X4505896Y-7813984D01*
X4505896Y-7813984D02*
X4467801Y-7813984D01*
X4467801Y-7813984D02*
X4448753Y-7804460D01*
X4629705Y-7794936D02*
X4639229Y-7804460D01*
X4639229Y-7804460D02*
X4629705Y-7813984D01*
X4629705Y-7813984D02*
X4620182Y-7804460D01*
X4620182Y-7804460D02*
X4629705Y-7794936D01*
X4629705Y-7794936D02*
X4629705Y-7813984D01*
X4629705Y-7690174D02*
X4639229Y-7699698D01*
X4639229Y-7699698D02*
X4629705Y-7709222D01*
X4629705Y-7709222D02*
X4620182Y-7699698D01*
X4620182Y-7699698D02*
X4629705Y-7690174D01*
X4629705Y-7690174D02*
X4629705Y-7709222D01*
D12*
X2967500Y-8127500D02*
X2997500Y-8157500D01*
X2997500Y-8127500D02*
X2967500Y-8157500D01*
D11*
X3296372Y-8033984D02*
X3315420Y-8033984D01*
X3315420Y-8033984D02*
X3334467Y-8043508D01*
X3334467Y-8043508D02*
X3343991Y-8053031D01*
X3343991Y-8053031D02*
X3353515Y-8072079D01*
X3353515Y-8072079D02*
X3363039Y-8110174D01*
X3363039Y-8110174D02*
X3363039Y-8157793D01*
X3363039Y-8157793D02*
X3353515Y-8195888D01*
X3353515Y-8195888D02*
X3343991Y-8214936D01*
X3343991Y-8214936D02*
X3334467Y-8224460D01*
X3334467Y-8224460D02*
X3315420Y-8233984D01*
X3315420Y-8233984D02*
X3296372Y-8233984D01*
X3296372Y-8233984D02*
X3277324Y-8224460D01*
X3277324Y-8224460D02*
X3267801Y-8214936D01*
X3267801Y-8214936D02*
X3258277Y-8195888D01*
X3258277Y-8195888D02*
X3248753Y-8157793D01*
X3248753Y-8157793D02*
X3248753Y-8110174D01*
X3248753Y-8110174D02*
X3258277Y-8072079D01*
X3258277Y-8072079D02*
X3267801Y-8053031D01*
X3267801Y-8053031D02*
X3277324Y-8043508D01*
X3277324Y-8043508D02*
X3296372Y-8033984D01*
X3448753Y-8214936D02*
X3458277Y-8224460D01*
X3458277Y-8224460D02*
X3448753Y-8233984D01*
X3448753Y-8233984D02*
X3439229Y-8224460D01*
X3439229Y-8224460D02*
X3448753Y-8214936D01*
X3448753Y-8214936D02*
X3448753Y-8233984D01*
X3524943Y-8033984D02*
X3648753Y-8033984D01*
X3648753Y-8033984D02*
X3582086Y-8110174D01*
X3582086Y-8110174D02*
X3610658Y-8110174D01*
X3610658Y-8110174D02*
X3629705Y-8119698D01*
X3629705Y-8119698D02*
X3639229Y-8129222D01*
X3639229Y-8129222D02*
X3648753Y-8148269D01*
X3648753Y-8148269D02*
X3648753Y-8195888D01*
X3648753Y-8195888D02*
X3639229Y-8214936D01*
X3639229Y-8214936D02*
X3629705Y-8224460D01*
X3629705Y-8224460D02*
X3610658Y-8233984D01*
X3610658Y-8233984D02*
X3553515Y-8233984D01*
X3553515Y-8233984D02*
X3534467Y-8224460D01*
X3534467Y-8224460D02*
X3524943Y-8214936D01*
X3772562Y-8033984D02*
X3791610Y-8033984D01*
X3791610Y-8033984D02*
X3810658Y-8043508D01*
X3810658Y-8043508D02*
X3820182Y-8053031D01*
X3820182Y-8053031D02*
X3829705Y-8072079D01*
X3829705Y-8072079D02*
X3839229Y-8110174D01*
X3839229Y-8110174D02*
X3839229Y-8157793D01*
X3839229Y-8157793D02*
X3829705Y-8195888D01*
X3829705Y-8195888D02*
X3820182Y-8214936D01*
X3820182Y-8214936D02*
X3810658Y-8224460D01*
X3810658Y-8224460D02*
X3791610Y-8233984D01*
X3791610Y-8233984D02*
X3772562Y-8233984D01*
X3772562Y-8233984D02*
X3753515Y-8224460D01*
X3753515Y-8224460D02*
X3743991Y-8214936D01*
X3743991Y-8214936D02*
X3734467Y-8195888D01*
X3734467Y-8195888D02*
X3724943Y-8157793D01*
X3724943Y-8157793D02*
X3724943Y-8110174D01*
X3724943Y-8110174D02*
X3734467Y-8072079D01*
X3734467Y-8072079D02*
X3743991Y-8053031D01*
X3743991Y-8053031D02*
X3753515Y-8043508D01*
X3753515Y-8043508D02*
X3772562Y-8033984D01*
X3963039Y-8033984D02*
X3982086Y-8033984D01*
X3982086Y-8033984D02*
X4001134Y-8043508D01*
X4001134Y-8043508D02*
X4010658Y-8053031D01*
X4010658Y-8053031D02*
X4020182Y-8072079D01*
X4020182Y-8072079D02*
X4029705Y-8110174D01*
X4029705Y-8110174D02*
X4029705Y-8157793D01*
X4029705Y-8157793D02*
X4020182Y-8195888D01*
X4020182Y-8195888D02*
X4010658Y-8214936D01*
X4010658Y-8214936D02*
X4001134Y-8224460D01*
X4001134Y-8224460D02*
X3982086Y-8233984D01*
X3982086Y-8233984D02*
X3963039Y-8233984D01*
X3963039Y-8233984D02*
X3943991Y-8224460D01*
X3943991Y-8224460D02*
X3934467Y-8214936D01*
X3934467Y-8214936D02*
X3924943Y-8195888D01*
X3924943Y-8195888D02*
X3915420Y-8157793D01*
X3915420Y-8157793D02*
X3915420Y-8110174D01*
X3915420Y-8110174D02*
X3924943Y-8072079D01*
X3924943Y-8072079D02*
X3934467Y-8053031D01*
X3934467Y-8053031D02*
X3943991Y-8043508D01*
X3943991Y-8043508D02*
X3963039Y-8033984D01*
X4115420Y-8233984D02*
X4115420Y-8100650D01*
X4115420Y-8119698D02*
X4124943Y-8110174D01*
X4124943Y-8110174D02*
X4143991Y-8100650D01*
X4143991Y-8100650D02*
X4172563Y-8100650D01*
X4172563Y-8100650D02*
X4191610Y-8110174D01*
X4191610Y-8110174D02*
X4201134Y-8129222D01*
X4201134Y-8129222D02*
X4201134Y-8233984D01*
X4201134Y-8129222D02*
X4210658Y-8110174D01*
X4210658Y-8110174D02*
X4229705Y-8100650D01*
X4229705Y-8100650D02*
X4258277Y-8100650D01*
X4258277Y-8100650D02*
X4277325Y-8110174D01*
X4277325Y-8110174D02*
X4286848Y-8129222D01*
X4286848Y-8129222D02*
X4286848Y-8233984D01*
X4382086Y-8233984D02*
X4382086Y-8100650D01*
X4382086Y-8119698D02*
X4391610Y-8110174D01*
X4391610Y-8110174D02*
X4410658Y-8100650D01*
X4410658Y-8100650D02*
X4439229Y-8100650D01*
X4439229Y-8100650D02*
X4458277Y-8110174D01*
X4458277Y-8110174D02*
X4467801Y-8129222D01*
X4467801Y-8129222D02*
X4467801Y-8233984D01*
X4467801Y-8129222D02*
X4477325Y-8110174D01*
X4477325Y-8110174D02*
X4496372Y-8100650D01*
X4496372Y-8100650D02*
X4524944Y-8100650D01*
X4524944Y-8100650D02*
X4543991Y-8110174D01*
X4543991Y-8110174D02*
X4553515Y-8129222D01*
X4553515Y-8129222D02*
X4553515Y-8233984D01*
X4943991Y-8024460D02*
X4772563Y-8281603D01*
X5201134Y-8033984D02*
X5220182Y-8033984D01*
X5220182Y-8033984D02*
X5239229Y-8043508D01*
X5239229Y-8043508D02*
X5248753Y-8053031D01*
X5248753Y-8053031D02*
X5258277Y-8072079D01*
X5258277Y-8072079D02*
X5267801Y-8110174D01*
X5267801Y-8110174D02*
X5267801Y-8157793D01*
X5267801Y-8157793D02*
X5258277Y-8195888D01*
X5258277Y-8195888D02*
X5248753Y-8214936D01*
X5248753Y-8214936D02*
X5239229Y-8224460D01*
X5239229Y-8224460D02*
X5220182Y-8233984D01*
X5220182Y-8233984D02*
X5201134Y-8233984D01*
X5201134Y-8233984D02*
X5182087Y-8224460D01*
X5182087Y-8224460D02*
X5172563Y-8214936D01*
X5172563Y-8214936D02*
X5163039Y-8195888D01*
X5163039Y-8195888D02*
X5153515Y-8157793D01*
X5153515Y-8157793D02*
X5153515Y-8110174D01*
X5153515Y-8110174D02*
X5163039Y-8072079D01*
X5163039Y-8072079D02*
X5172563Y-8053031D01*
X5172563Y-8053031D02*
X5182087Y-8043508D01*
X5182087Y-8043508D02*
X5201134Y-8033984D01*
X5353515Y-8214936D02*
X5363039Y-8224460D01*
X5363039Y-8224460D02*
X5353515Y-8233984D01*
X5353515Y-8233984D02*
X5343991Y-8224460D01*
X5343991Y-8224460D02*
X5353515Y-8214936D01*
X5353515Y-8214936D02*
X5353515Y-8233984D01*
X5486848Y-8033984D02*
X5505896Y-8033984D01*
X5505896Y-8033984D02*
X5524944Y-8043508D01*
X5524944Y-8043508D02*
X5534468Y-8053031D01*
X5534468Y-8053031D02*
X5543991Y-8072079D01*
X5543991Y-8072079D02*
X5553515Y-8110174D01*
X5553515Y-8110174D02*
X5553515Y-8157793D01*
X5553515Y-8157793D02*
X5543991Y-8195888D01*
X5543991Y-8195888D02*
X5534468Y-8214936D01*
X5534468Y-8214936D02*
X5524944Y-8224460D01*
X5524944Y-8224460D02*
X5505896Y-8233984D01*
X5505896Y-8233984D02*
X5486848Y-8233984D01*
X5486848Y-8233984D02*
X5467801Y-8224460D01*
X5467801Y-8224460D02*
X5458277Y-8214936D01*
X5458277Y-8214936D02*
X5448753Y-8195888D01*
X5448753Y-8195888D02*
X5439229Y-8157793D01*
X5439229Y-8157793D02*
X5439229Y-8110174D01*
X5439229Y-8110174D02*
X5448753Y-8072079D01*
X5448753Y-8072079D02*
X5458277Y-8053031D01*
X5458277Y-8053031D02*
X5467801Y-8043508D01*
X5467801Y-8043508D02*
X5486848Y-8033984D01*
X5743991Y-8233984D02*
X5629706Y-8233984D01*
X5686848Y-8233984D02*
X5686848Y-8033984D01*
X5686848Y-8033984D02*
X5667801Y-8062555D01*
X5667801Y-8062555D02*
X5648753Y-8081603D01*
X5648753Y-8081603D02*
X5629706Y-8091127D01*
X5934467Y-8233984D02*
X5820182Y-8233984D01*
X5877325Y-8233984D02*
X5877325Y-8033984D01*
X5877325Y-8033984D02*
X5858277Y-8062555D01*
X5858277Y-8062555D02*
X5839229Y-8081603D01*
X5839229Y-8081603D02*
X5820182Y-8091127D01*
X6048753Y-8119698D02*
X6029706Y-8110174D01*
X6029706Y-8110174D02*
X6020182Y-8100650D01*
X6020182Y-8100650D02*
X6010658Y-8081603D01*
X6010658Y-8081603D02*
X6010658Y-8072079D01*
X6010658Y-8072079D02*
X6020182Y-8053031D01*
X6020182Y-8053031D02*
X6029706Y-8043508D01*
X6029706Y-8043508D02*
X6048753Y-8033984D01*
X6048753Y-8033984D02*
X6086848Y-8033984D01*
X6086848Y-8033984D02*
X6105896Y-8043508D01*
X6105896Y-8043508D02*
X6115420Y-8053031D01*
X6115420Y-8053031D02*
X6124944Y-8072079D01*
X6124944Y-8072079D02*
X6124944Y-8081603D01*
X6124944Y-8081603D02*
X6115420Y-8100650D01*
X6115420Y-8100650D02*
X6105896Y-8110174D01*
X6105896Y-8110174D02*
X6086848Y-8119698D01*
X6086848Y-8119698D02*
X6048753Y-8119698D01*
X6048753Y-8119698D02*
X6029706Y-8129222D01*
X6029706Y-8129222D02*
X6020182Y-8138746D01*
X6020182Y-8138746D02*
X6010658Y-8157793D01*
X6010658Y-8157793D02*
X6010658Y-8195888D01*
X6010658Y-8195888D02*
X6020182Y-8214936D01*
X6020182Y-8214936D02*
X6029706Y-8224460D01*
X6029706Y-8224460D02*
X6048753Y-8233984D01*
X6048753Y-8233984D02*
X6086848Y-8233984D01*
X6086848Y-8233984D02*
X6105896Y-8224460D01*
X6105896Y-8224460D02*
X6115420Y-8214936D01*
X6115420Y-8214936D02*
X6124944Y-8195888D01*
X6124944Y-8195888D02*
X6124944Y-8157793D01*
X6124944Y-8157793D02*
X6115420Y-8138746D01*
X6115420Y-8138746D02*
X6105896Y-8129222D01*
X6105896Y-8129222D02*
X6086848Y-8119698D01*
X6201134Y-8033984D02*
X6201134Y-8072079D01*
X6277325Y-8033984D02*
X6277325Y-8072079D01*
X6572563Y-8310174D02*
X6563039Y-8300650D01*
X6563039Y-8300650D02*
X6543991Y-8272079D01*
X6543991Y-8272079D02*
X6534468Y-8253031D01*
X6534468Y-8253031D02*
X6524944Y-8224460D01*
X6524944Y-8224460D02*
X6515420Y-8176841D01*
X6515420Y-8176841D02*
X6515420Y-8138746D01*
X6515420Y-8138746D02*
X6524944Y-8091127D01*
X6524944Y-8091127D02*
X6534468Y-8062555D01*
X6534468Y-8062555D02*
X6543991Y-8043508D01*
X6543991Y-8043508D02*
X6563039Y-8014936D01*
X6563039Y-8014936D02*
X6572563Y-8005412D01*
X6743991Y-8033984D02*
X6648753Y-8033984D01*
X6648753Y-8033984D02*
X6639229Y-8129222D01*
X6639229Y-8129222D02*
X6648753Y-8119698D01*
X6648753Y-8119698D02*
X6667801Y-8110174D01*
X6667801Y-8110174D02*
X6715420Y-8110174D01*
X6715420Y-8110174D02*
X6734468Y-8119698D01*
X6734468Y-8119698D02*
X6743991Y-8129222D01*
X6743991Y-8129222D02*
X6753515Y-8148269D01*
X6753515Y-8148269D02*
X6753515Y-8195888D01*
X6753515Y-8195888D02*
X6743991Y-8214936D01*
X6743991Y-8214936D02*
X6734468Y-8224460D01*
X6734468Y-8224460D02*
X6715420Y-8233984D01*
X6715420Y-8233984D02*
X6667801Y-8233984D01*
X6667801Y-8233984D02*
X6648753Y-8224460D01*
X6648753Y-8224460D02*
X6639229Y-8214936D01*
X6991610Y-8233984D02*
X6991610Y-8033984D01*
X7077325Y-8233984D02*
X7077325Y-8129222D01*
X7077325Y-8129222D02*
X7067801Y-8110174D01*
X7067801Y-8110174D02*
X7048753Y-8100650D01*
X7048753Y-8100650D02*
X7020182Y-8100650D01*
X7020182Y-8100650D02*
X7001134Y-8110174D01*
X7001134Y-8110174D02*
X6991610Y-8119698D01*
X7201134Y-8233984D02*
X7182087Y-8224460D01*
X7182087Y-8224460D02*
X7172563Y-8214936D01*
X7172563Y-8214936D02*
X7163039Y-8195888D01*
X7163039Y-8195888D02*
X7163039Y-8138746D01*
X7163039Y-8138746D02*
X7172563Y-8119698D01*
X7172563Y-8119698D02*
X7182087Y-8110174D01*
X7182087Y-8110174D02*
X7201134Y-8100650D01*
X7201134Y-8100650D02*
X7229706Y-8100650D01*
X7229706Y-8100650D02*
X7248753Y-8110174D01*
X7248753Y-8110174D02*
X7258277Y-8119698D01*
X7258277Y-8119698D02*
X7267801Y-8138746D01*
X7267801Y-8138746D02*
X7267801Y-8195888D01*
X7267801Y-8195888D02*
X7258277Y-8214936D01*
X7258277Y-8214936D02*
X7248753Y-8224460D01*
X7248753Y-8224460D02*
X7229706Y-8233984D01*
X7229706Y-8233984D02*
X7201134Y-8233984D01*
X7382087Y-8233984D02*
X7363039Y-8224460D01*
X7363039Y-8224460D02*
X7353515Y-8205412D01*
X7353515Y-8205412D02*
X7353515Y-8033984D01*
X7534468Y-8224460D02*
X7515420Y-8233984D01*
X7515420Y-8233984D02*
X7477325Y-8233984D01*
X7477325Y-8233984D02*
X7458277Y-8224460D01*
X7458277Y-8224460D02*
X7448753Y-8205412D01*
X7448753Y-8205412D02*
X7448753Y-8129222D01*
X7448753Y-8129222D02*
X7458277Y-8110174D01*
X7458277Y-8110174D02*
X7477325Y-8100650D01*
X7477325Y-8100650D02*
X7515420Y-8100650D01*
X7515420Y-8100650D02*
X7534468Y-8110174D01*
X7534468Y-8110174D02*
X7543991Y-8129222D01*
X7543991Y-8129222D02*
X7543991Y-8148269D01*
X7543991Y-8148269D02*
X7448753Y-8167317D01*
X7620182Y-8224460D02*
X7639230Y-8233984D01*
X7639230Y-8233984D02*
X7677325Y-8233984D01*
X7677325Y-8233984D02*
X7696372Y-8224460D01*
X7696372Y-8224460D02*
X7705896Y-8205412D01*
X7705896Y-8205412D02*
X7705896Y-8195888D01*
X7705896Y-8195888D02*
X7696372Y-8176841D01*
X7696372Y-8176841D02*
X7677325Y-8167317D01*
X7677325Y-8167317D02*
X7648753Y-8167317D01*
X7648753Y-8167317D02*
X7629706Y-8157793D01*
X7629706Y-8157793D02*
X7620182Y-8138746D01*
X7620182Y-8138746D02*
X7620182Y-8129222D01*
X7620182Y-8129222D02*
X7629706Y-8110174D01*
X7629706Y-8110174D02*
X7648753Y-8100650D01*
X7648753Y-8100650D02*
X7677325Y-8100650D01*
X7677325Y-8100650D02*
X7696372Y-8110174D01*
X7772563Y-8310174D02*
X7782087Y-8300650D01*
X7782087Y-8300650D02*
X7801134Y-8272079D01*
X7801134Y-8272079D02*
X7810658Y-8253031D01*
X7810658Y-8253031D02*
X7820182Y-8224460D01*
X7820182Y-8224460D02*
X7829706Y-8176841D01*
X7829706Y-8176841D02*
X7829706Y-8138746D01*
X7829706Y-8138746D02*
X7820182Y-8091127D01*
X7820182Y-8091127D02*
X7810658Y-8062555D01*
X7810658Y-8062555D02*
X7801134Y-8043508D01*
X7801134Y-8043508D02*
X7782087Y-8014936D01*
X7782087Y-8014936D02*
X7772563Y-8005412D01*
D12*
X2997500Y-8406500D02*
G75*
G02*
X2897500Y-8406500I-50000J0D01*
G01*
X2897500Y-8406500D02*
G75*
G02*
X2997500Y-8406500I50000J0D01*
G01*
D11*
X3363039Y-8497984D02*
X3248753Y-8497984D01*
X3305896Y-8497984D02*
X3305896Y-8297984D01*
X3305896Y-8297984D02*
X3286848Y-8326555D01*
X3286848Y-8326555D02*
X3267801Y-8345603D01*
X3267801Y-8345603D02*
X3248753Y-8355127D01*
X3448753Y-8478936D02*
X3458277Y-8488460D01*
X3458277Y-8488460D02*
X3448753Y-8497984D01*
X3448753Y-8497984D02*
X3439229Y-8488460D01*
X3439229Y-8488460D02*
X3448753Y-8478936D01*
X3448753Y-8478936D02*
X3448753Y-8497984D01*
X3582086Y-8297984D02*
X3601134Y-8297984D01*
X3601134Y-8297984D02*
X3620182Y-8307508D01*
X3620182Y-8307508D02*
X3629705Y-8317031D01*
X3629705Y-8317031D02*
X3639229Y-8336079D01*
X3639229Y-8336079D02*
X3648753Y-8374174D01*
X3648753Y-8374174D02*
X3648753Y-8421793D01*
X3648753Y-8421793D02*
X3639229Y-8459889D01*
X3639229Y-8459889D02*
X3629705Y-8478936D01*
X3629705Y-8478936D02*
X3620182Y-8488460D01*
X3620182Y-8488460D02*
X3601134Y-8497984D01*
X3601134Y-8497984D02*
X3582086Y-8497984D01*
X3582086Y-8497984D02*
X3563039Y-8488460D01*
X3563039Y-8488460D02*
X3553515Y-8478936D01*
X3553515Y-8478936D02*
X3543991Y-8459889D01*
X3543991Y-8459889D02*
X3534467Y-8421793D01*
X3534467Y-8421793D02*
X3534467Y-8374174D01*
X3534467Y-8374174D02*
X3543991Y-8336079D01*
X3543991Y-8336079D02*
X3553515Y-8317031D01*
X3553515Y-8317031D02*
X3563039Y-8307508D01*
X3563039Y-8307508D02*
X3582086Y-8297984D01*
X3772562Y-8297984D02*
X3791610Y-8297984D01*
X3791610Y-8297984D02*
X3810658Y-8307508D01*
X3810658Y-8307508D02*
X3820182Y-8317031D01*
X3820182Y-8317031D02*
X3829705Y-8336079D01*
X3829705Y-8336079D02*
X3839229Y-8374174D01*
X3839229Y-8374174D02*
X3839229Y-8421793D01*
X3839229Y-8421793D02*
X3829705Y-8459889D01*
X3829705Y-8459889D02*
X3820182Y-8478936D01*
X3820182Y-8478936D02*
X3810658Y-8488460D01*
X3810658Y-8488460D02*
X3791610Y-8497984D01*
X3791610Y-8497984D02*
X3772562Y-8497984D01*
X3772562Y-8497984D02*
X3753515Y-8488460D01*
X3753515Y-8488460D02*
X3743991Y-8478936D01*
X3743991Y-8478936D02*
X3734467Y-8459889D01*
X3734467Y-8459889D02*
X3724943Y-8421793D01*
X3724943Y-8421793D02*
X3724943Y-8374174D01*
X3724943Y-8374174D02*
X3734467Y-8336079D01*
X3734467Y-8336079D02*
X3743991Y-8317031D01*
X3743991Y-8317031D02*
X3753515Y-8307508D01*
X3753515Y-8307508D02*
X3772562Y-8297984D01*
X3963039Y-8297984D02*
X3982086Y-8297984D01*
X3982086Y-8297984D02*
X4001134Y-8307508D01*
X4001134Y-8307508D02*
X4010658Y-8317031D01*
X4010658Y-8317031D02*
X4020182Y-8336079D01*
X4020182Y-8336079D02*
X4029705Y-8374174D01*
X4029705Y-8374174D02*
X4029705Y-8421793D01*
X4029705Y-8421793D02*
X4020182Y-8459889D01*
X4020182Y-8459889D02*
X4010658Y-8478936D01*
X4010658Y-8478936D02*
X4001134Y-8488460D01*
X4001134Y-8488460D02*
X3982086Y-8497984D01*
X3982086Y-8497984D02*
X3963039Y-8497984D01*
X3963039Y-8497984D02*
X3943991Y-8488460D01*
X3943991Y-8488460D02*
X3934467Y-8478936D01*
X3934467Y-8478936D02*
X3924943Y-8459889D01*
X3924943Y-8459889D02*
X3915420Y-8421793D01*
X3915420Y-8421793D02*
X3915420Y-8374174D01*
X3915420Y-8374174D02*
X3924943Y-8336079D01*
X3924943Y-8336079D02*
X3934467Y-8317031D01*
X3934467Y-8317031D02*
X3943991Y-8307508D01*
X3943991Y-8307508D02*
X3963039Y-8297984D01*
X4115420Y-8497984D02*
X4115420Y-8364650D01*
X4115420Y-8383698D02*
X4124943Y-8374174D01*
X4124943Y-8374174D02*
X4143991Y-8364650D01*
X4143991Y-8364650D02*
X4172563Y-8364650D01*
X4172563Y-8364650D02*
X4191610Y-8374174D01*
X4191610Y-8374174D02*
X4201134Y-8393222D01*
X4201134Y-8393222D02*
X4201134Y-8497984D01*
X4201134Y-8393222D02*
X4210658Y-8374174D01*
X4210658Y-8374174D02*
X4229705Y-8364650D01*
X4229705Y-8364650D02*
X4258277Y-8364650D01*
X4258277Y-8364650D02*
X4277325Y-8374174D01*
X4277325Y-8374174D02*
X4286848Y-8393222D01*
X4286848Y-8393222D02*
X4286848Y-8497984D01*
X4382086Y-8497984D02*
X4382086Y-8364650D01*
X4382086Y-8383698D02*
X4391610Y-8374174D01*
X4391610Y-8374174D02*
X4410658Y-8364650D01*
X4410658Y-8364650D02*
X4439229Y-8364650D01*
X4439229Y-8364650D02*
X4458277Y-8374174D01*
X4458277Y-8374174D02*
X4467801Y-8393222D01*
X4467801Y-8393222D02*
X4467801Y-8497984D01*
X4467801Y-8393222D02*
X4477325Y-8374174D01*
X4477325Y-8374174D02*
X4496372Y-8364650D01*
X4496372Y-8364650D02*
X4524944Y-8364650D01*
X4524944Y-8364650D02*
X4543991Y-8374174D01*
X4543991Y-8374174D02*
X4553515Y-8393222D01*
X4553515Y-8393222D02*
X4553515Y-8497984D01*
X4943991Y-8288460D02*
X4772563Y-8545603D01*
X5201134Y-8297984D02*
X5220182Y-8297984D01*
X5220182Y-8297984D02*
X5239229Y-8307508D01*
X5239229Y-8307508D02*
X5248753Y-8317031D01*
X5248753Y-8317031D02*
X5258277Y-8336079D01*
X5258277Y-8336079D02*
X5267801Y-8374174D01*
X5267801Y-8374174D02*
X5267801Y-8421793D01*
X5267801Y-8421793D02*
X5258277Y-8459889D01*
X5258277Y-8459889D02*
X5248753Y-8478936D01*
X5248753Y-8478936D02*
X5239229Y-8488460D01*
X5239229Y-8488460D02*
X5220182Y-8497984D01*
X5220182Y-8497984D02*
X5201134Y-8497984D01*
X5201134Y-8497984D02*
X5182087Y-8488460D01*
X5182087Y-8488460D02*
X5172563Y-8478936D01*
X5172563Y-8478936D02*
X5163039Y-8459889D01*
X5163039Y-8459889D02*
X5153515Y-8421793D01*
X5153515Y-8421793D02*
X5153515Y-8374174D01*
X5153515Y-8374174D02*
X5163039Y-8336079D01*
X5163039Y-8336079D02*
X5172563Y-8317031D01*
X5172563Y-8317031D02*
X5182087Y-8307508D01*
X5182087Y-8307508D02*
X5201134Y-8297984D01*
X5353515Y-8478936D02*
X5363039Y-8488460D01*
X5363039Y-8488460D02*
X5353515Y-8497984D01*
X5353515Y-8497984D02*
X5343991Y-8488460D01*
X5343991Y-8488460D02*
X5353515Y-8478936D01*
X5353515Y-8478936D02*
X5353515Y-8497984D01*
X5486848Y-8297984D02*
X5505896Y-8297984D01*
X5505896Y-8297984D02*
X5524944Y-8307508D01*
X5524944Y-8307508D02*
X5534468Y-8317031D01*
X5534468Y-8317031D02*
X5543991Y-8336079D01*
X5543991Y-8336079D02*
X5553515Y-8374174D01*
X5553515Y-8374174D02*
X5553515Y-8421793D01*
X5553515Y-8421793D02*
X5543991Y-8459889D01*
X5543991Y-8459889D02*
X5534468Y-8478936D01*
X5534468Y-8478936D02*
X5524944Y-8488460D01*
X5524944Y-8488460D02*
X5505896Y-8497984D01*
X5505896Y-8497984D02*
X5486848Y-8497984D01*
X5486848Y-8497984D02*
X5467801Y-8488460D01*
X5467801Y-8488460D02*
X5458277Y-8478936D01*
X5458277Y-8478936D02*
X5448753Y-8459889D01*
X5448753Y-8459889D02*
X5439229Y-8421793D01*
X5439229Y-8421793D02*
X5439229Y-8374174D01*
X5439229Y-8374174D02*
X5448753Y-8336079D01*
X5448753Y-8336079D02*
X5458277Y-8317031D01*
X5458277Y-8317031D02*
X5467801Y-8307508D01*
X5467801Y-8307508D02*
X5486848Y-8297984D01*
X5620182Y-8297984D02*
X5743991Y-8297984D01*
X5743991Y-8297984D02*
X5677325Y-8374174D01*
X5677325Y-8374174D02*
X5705896Y-8374174D01*
X5705896Y-8374174D02*
X5724944Y-8383698D01*
X5724944Y-8383698D02*
X5734467Y-8393222D01*
X5734467Y-8393222D02*
X5743991Y-8412270D01*
X5743991Y-8412270D02*
X5743991Y-8459889D01*
X5743991Y-8459889D02*
X5734467Y-8478936D01*
X5734467Y-8478936D02*
X5724944Y-8488460D01*
X5724944Y-8488460D02*
X5705896Y-8497984D01*
X5705896Y-8497984D02*
X5648753Y-8497984D01*
X5648753Y-8497984D02*
X5629706Y-8488460D01*
X5629706Y-8488460D02*
X5620182Y-8478936D01*
X5839229Y-8497984D02*
X5877325Y-8497984D01*
X5877325Y-8497984D02*
X5896372Y-8488460D01*
X5896372Y-8488460D02*
X5905896Y-8478936D01*
X5905896Y-8478936D02*
X5924944Y-8450365D01*
X5924944Y-8450365D02*
X5934467Y-8412270D01*
X5934467Y-8412270D02*
X5934467Y-8336079D01*
X5934467Y-8336079D02*
X5924944Y-8317031D01*
X5924944Y-8317031D02*
X5915420Y-8307508D01*
X5915420Y-8307508D02*
X5896372Y-8297984D01*
X5896372Y-8297984D02*
X5858277Y-8297984D01*
X5858277Y-8297984D02*
X5839229Y-8307508D01*
X5839229Y-8307508D02*
X5829706Y-8317031D01*
X5829706Y-8317031D02*
X5820182Y-8336079D01*
X5820182Y-8336079D02*
X5820182Y-8383698D01*
X5820182Y-8383698D02*
X5829706Y-8402746D01*
X5829706Y-8402746D02*
X5839229Y-8412270D01*
X5839229Y-8412270D02*
X5858277Y-8421793D01*
X5858277Y-8421793D02*
X5896372Y-8421793D01*
X5896372Y-8421793D02*
X5915420Y-8412270D01*
X5915420Y-8412270D02*
X5924944Y-8402746D01*
X5924944Y-8402746D02*
X5934467Y-8383698D01*
X6105896Y-8364650D02*
X6105896Y-8497984D01*
X6058277Y-8288460D02*
X6010658Y-8431317D01*
X6010658Y-8431317D02*
X6134467Y-8431317D01*
X6201134Y-8297984D02*
X6201134Y-8336079D01*
X6277325Y-8297984D02*
X6277325Y-8336079D01*
X6572563Y-8574174D02*
X6563039Y-8564650D01*
X6563039Y-8564650D02*
X6543991Y-8536079D01*
X6543991Y-8536079D02*
X6534468Y-8517031D01*
X6534468Y-8517031D02*
X6524944Y-8488460D01*
X6524944Y-8488460D02*
X6515420Y-8440841D01*
X6515420Y-8440841D02*
X6515420Y-8402746D01*
X6515420Y-8402746D02*
X6524944Y-8355127D01*
X6524944Y-8355127D02*
X6534468Y-8326555D01*
X6534468Y-8326555D02*
X6543991Y-8307508D01*
X6543991Y-8307508D02*
X6563039Y-8278936D01*
X6563039Y-8278936D02*
X6572563Y-8269412D01*
X6677325Y-8383698D02*
X6658277Y-8374174D01*
X6658277Y-8374174D02*
X6648753Y-8364650D01*
X6648753Y-8364650D02*
X6639229Y-8345603D01*
X6639229Y-8345603D02*
X6639229Y-8336079D01*
X6639229Y-8336079D02*
X6648753Y-8317031D01*
X6648753Y-8317031D02*
X6658277Y-8307508D01*
X6658277Y-8307508D02*
X6677325Y-8297984D01*
X6677325Y-8297984D02*
X6715420Y-8297984D01*
X6715420Y-8297984D02*
X6734468Y-8307508D01*
X6734468Y-8307508D02*
X6743991Y-8317031D01*
X6743991Y-8317031D02*
X6753515Y-8336079D01*
X6753515Y-8336079D02*
X6753515Y-8345603D01*
X6753515Y-8345603D02*
X6743991Y-8364650D01*
X6743991Y-8364650D02*
X6734468Y-8374174D01*
X6734468Y-8374174D02*
X6715420Y-8383698D01*
X6715420Y-8383698D02*
X6677325Y-8383698D01*
X6677325Y-8383698D02*
X6658277Y-8393222D01*
X6658277Y-8393222D02*
X6648753Y-8402746D01*
X6648753Y-8402746D02*
X6639229Y-8421793D01*
X6639229Y-8421793D02*
X6639229Y-8459889D01*
X6639229Y-8459889D02*
X6648753Y-8478936D01*
X6648753Y-8478936D02*
X6658277Y-8488460D01*
X6658277Y-8488460D02*
X6677325Y-8497984D01*
X6677325Y-8497984D02*
X6715420Y-8497984D01*
X6715420Y-8497984D02*
X6734468Y-8488460D01*
X6734468Y-8488460D02*
X6743991Y-8478936D01*
X6743991Y-8478936D02*
X6753515Y-8459889D01*
X6753515Y-8459889D02*
X6753515Y-8421793D01*
X6753515Y-8421793D02*
X6743991Y-8402746D01*
X6743991Y-8402746D02*
X6734468Y-8393222D01*
X6734468Y-8393222D02*
X6715420Y-8383698D01*
X6991610Y-8497984D02*
X6991610Y-8297984D01*
X7077325Y-8497984D02*
X7077325Y-8393222D01*
X7077325Y-8393222D02*
X7067801Y-8374174D01*
X7067801Y-8374174D02*
X7048753Y-8364650D01*
X7048753Y-8364650D02*
X7020182Y-8364650D01*
X7020182Y-8364650D02*
X7001134Y-8374174D01*
X7001134Y-8374174D02*
X6991610Y-8383698D01*
X7201134Y-8497984D02*
X7182087Y-8488460D01*
X7182087Y-8488460D02*
X7172563Y-8478936D01*
X7172563Y-8478936D02*
X7163039Y-8459889D01*
X7163039Y-8459889D02*
X7163039Y-8402746D01*
X7163039Y-8402746D02*
X7172563Y-8383698D01*
X7172563Y-8383698D02*
X7182087Y-8374174D01*
X7182087Y-8374174D02*
X7201134Y-8364650D01*
X7201134Y-8364650D02*
X7229706Y-8364650D01*
X7229706Y-8364650D02*
X7248753Y-8374174D01*
X7248753Y-8374174D02*
X7258277Y-8383698D01*
X7258277Y-8383698D02*
X7267801Y-8402746D01*
X7267801Y-8402746D02*
X7267801Y-8459889D01*
X7267801Y-8459889D02*
X7258277Y-8478936D01*
X7258277Y-8478936D02*
X7248753Y-8488460D01*
X7248753Y-8488460D02*
X7229706Y-8497984D01*
X7229706Y-8497984D02*
X7201134Y-8497984D01*
X7382087Y-8497984D02*
X7363039Y-8488460D01*
X7363039Y-8488460D02*
X7353515Y-8469412D01*
X7353515Y-8469412D02*
X7353515Y-8297984D01*
X7534468Y-8488460D02*
X7515420Y-8497984D01*
X7515420Y-8497984D02*
X7477325Y-8497984D01*
X7477325Y-8497984D02*
X7458277Y-8488460D01*
X7458277Y-8488460D02*
X7448753Y-8469412D01*
X7448753Y-8469412D02*
X7448753Y-8393222D01*
X7448753Y-8393222D02*
X7458277Y-8374174D01*
X7458277Y-8374174D02*
X7477325Y-8364650D01*
X7477325Y-8364650D02*
X7515420Y-8364650D01*
X7515420Y-8364650D02*
X7534468Y-8374174D01*
X7534468Y-8374174D02*
X7543991Y-8393222D01*
X7543991Y-8393222D02*
X7543991Y-8412270D01*
X7543991Y-8412270D02*
X7448753Y-8431317D01*
X7620182Y-8488460D02*
X7639230Y-8497984D01*
X7639230Y-8497984D02*
X7677325Y-8497984D01*
X7677325Y-8497984D02*
X7696372Y-8488460D01*
X7696372Y-8488460D02*
X7705896Y-8469412D01*
X7705896Y-8469412D02*
X7705896Y-8459889D01*
X7705896Y-8459889D02*
X7696372Y-8440841D01*
X7696372Y-8440841D02*
X7677325Y-8431317D01*
X7677325Y-8431317D02*
X7648753Y-8431317D01*
X7648753Y-8431317D02*
X7629706Y-8421793D01*
X7629706Y-8421793D02*
X7620182Y-8402746D01*
X7620182Y-8402746D02*
X7620182Y-8393222D01*
X7620182Y-8393222D02*
X7629706Y-8374174D01*
X7629706Y-8374174D02*
X7648753Y-8364650D01*
X7648753Y-8364650D02*
X7677325Y-8364650D01*
X7677325Y-8364650D02*
X7696372Y-8374174D01*
X7772563Y-8574174D02*
X7782087Y-8564650D01*
X7782087Y-8564650D02*
X7801134Y-8536079D01*
X7801134Y-8536079D02*
X7810658Y-8517031D01*
X7810658Y-8517031D02*
X7820182Y-8488460D01*
X7820182Y-8488460D02*
X7829706Y-8440841D01*
X7829706Y-8440841D02*
X7829706Y-8402746D01*
X7829706Y-8402746D02*
X7820182Y-8355127D01*
X7820182Y-8355127D02*
X7810658Y-8326555D01*
X7810658Y-8326555D02*
X7801134Y-8307508D01*
X7801134Y-8307508D02*
X7782087Y-8278936D01*
X7782087Y-8278936D02*
X7772563Y-8269412D01*
M02*
