%TF.GenerationSoftware,KiCad,Pcbnew,9.0.6*%
%TF.CreationDate,2025-11-11T11:50:19+01:00*%
%TF.ProjectId,tankuhr,74616e6b-7568-4722-9e6b-696361645f70,rev?*%
%TF.SameCoordinates,Original*%
%TF.FileFunction,Legend,Top*%
%TF.FilePolarity,Positive*%
%FSLAX46Y46*%
G04 Gerber Fmt 4.6, Leading zero omitted, Abs format (unit mm)*
G04 Created by KiCad (PCBNEW 9.0.6) date 2025-11-11 11:50:19*
%MOMM*%
%LPD*%
G01*
G04 APERTURE LIST*
G04 Aperture macros list*
%AMRoundRect*
0 Rectangle with rounded corners*
0 $1 Rounding radius*
0 $2 $3 $4 $5 $6 $7 $8 $9 X,Y pos of 4 corners*
0 Add a 4 corners polygon primitive as box body*
4,1,4,$2,$3,$4,$5,$6,$7,$8,$9,$2,$3,0*
0 Add four circle primitives for the rounded corners*
1,1,$1+$1,$2,$3*
1,1,$1+$1,$4,$5*
1,1,$1+$1,$6,$7*
1,1,$1+$1,$8,$9*
0 Add four rect primitives between the rounded corners*
20,1,$1+$1,$2,$3,$4,$5,0*
20,1,$1+$1,$4,$5,$6,$7,0*
20,1,$1+$1,$6,$7,$8,$9,0*
20,1,$1+$1,$8,$9,$2,$3,0*%
G04 Aperture macros list end*
%ADD10C,0.100000*%
%ADD11C,0.150000*%
%ADD12C,0.106680*%
%ADD13C,0.120000*%
%ADD14C,0.127000*%
%ADD15C,0.504000*%
%ADD16R,2.000000X2.000000*%
%ADD17RoundRect,0.250000X0.650000X0.650000X-0.650000X0.650000X-0.650000X-0.650000X0.650000X-0.650000X0*%
%ADD18C,1.800000*%
%ADD19R,1.700000X1.700000*%
%ADD20C,1.700000*%
%ADD21RoundRect,0.250000X-0.262500X-0.450000X0.262500X-0.450000X0.262500X0.450000X-0.262500X0.450000X0*%
%ADD22RoundRect,0.250000X0.262500X0.450000X-0.262500X0.450000X-0.262500X-0.450000X0.262500X-0.450000X0*%
%ADD23C,2.200000*%
%ADD24RoundRect,0.250000X0.250000X0.475000X-0.250000X0.475000X-0.250000X-0.475000X0.250000X-0.475000X0*%
%ADD25RoundRect,0.525400X0.525400X-0.900400X0.525400X0.900400X-0.525400X0.900400X-0.525400X-0.900400X0*%
%ADD26RoundRect,0.300400X-0.300400X1.000400X-0.300400X-1.000400X0.300400X-1.000400X0.300400X1.000400X0*%
G04 APERTURE END LIST*
D10*
X35756265Y-71586704D02*
X36232455Y-71586704D01*
X35661027Y-71872419D02*
X35994360Y-70872419D01*
X35994360Y-70872419D02*
X36327693Y-71872419D01*
X36661027Y-71872419D02*
X36661027Y-70872419D01*
X36756265Y-71491466D02*
X37041979Y-71872419D01*
X37041979Y-71205752D02*
X36661027Y-71586704D01*
X37899122Y-71872419D02*
X37899122Y-71348609D01*
X37899122Y-71348609D02*
X37851503Y-71253371D01*
X37851503Y-71253371D02*
X37756265Y-71205752D01*
X37756265Y-71205752D02*
X37565789Y-71205752D01*
X37565789Y-71205752D02*
X37470551Y-71253371D01*
X37899122Y-71824800D02*
X37803884Y-71872419D01*
X37803884Y-71872419D02*
X37565789Y-71872419D01*
X37565789Y-71872419D02*
X37470551Y-71824800D01*
X37470551Y-71824800D02*
X37422932Y-71729561D01*
X37422932Y-71729561D02*
X37422932Y-71634323D01*
X37422932Y-71634323D02*
X37470551Y-71539085D01*
X37470551Y-71539085D02*
X37565789Y-71491466D01*
X37565789Y-71491466D02*
X37803884Y-71491466D01*
X37803884Y-71491466D02*
X37899122Y-71443847D01*
X38232456Y-71205752D02*
X38613408Y-71205752D01*
X38375313Y-71872419D02*
X38375313Y-71015276D01*
X38375313Y-71015276D02*
X38422932Y-70920038D01*
X38422932Y-70920038D02*
X38518170Y-70872419D01*
X38518170Y-70872419D02*
X38613408Y-70872419D01*
X39089599Y-71872419D02*
X38994361Y-71824800D01*
X38994361Y-71824800D02*
X38946742Y-71729561D01*
X38946742Y-71729561D02*
X38946742Y-70872419D01*
X39470552Y-71872419D02*
X39470552Y-71205752D01*
X39470552Y-70872419D02*
X39422933Y-70920038D01*
X39422933Y-70920038D02*
X39470552Y-70967657D01*
X39470552Y-70967657D02*
X39518171Y-70920038D01*
X39518171Y-70920038D02*
X39470552Y-70872419D01*
X39470552Y-70872419D02*
X39470552Y-70967657D01*
X40327694Y-71824800D02*
X40232456Y-71872419D01*
X40232456Y-71872419D02*
X40041980Y-71872419D01*
X40041980Y-71872419D02*
X39946742Y-71824800D01*
X39946742Y-71824800D02*
X39899123Y-71729561D01*
X39899123Y-71729561D02*
X39899123Y-71348609D01*
X39899123Y-71348609D02*
X39946742Y-71253371D01*
X39946742Y-71253371D02*
X40041980Y-71205752D01*
X40041980Y-71205752D02*
X40232456Y-71205752D01*
X40232456Y-71205752D02*
X40327694Y-71253371D01*
X40327694Y-71253371D02*
X40375313Y-71348609D01*
X40375313Y-71348609D02*
X40375313Y-71443847D01*
X40375313Y-71443847D02*
X39899123Y-71539085D01*
X41232456Y-71205752D02*
X41232456Y-72015276D01*
X41232456Y-72015276D02*
X41184837Y-72110514D01*
X41184837Y-72110514D02*
X41137218Y-72158133D01*
X41137218Y-72158133D02*
X41041980Y-72205752D01*
X41041980Y-72205752D02*
X40899123Y-72205752D01*
X40899123Y-72205752D02*
X40803885Y-72158133D01*
X41232456Y-71824800D02*
X41137218Y-71872419D01*
X41137218Y-71872419D02*
X40946742Y-71872419D01*
X40946742Y-71872419D02*
X40851504Y-71824800D01*
X40851504Y-71824800D02*
X40803885Y-71777180D01*
X40803885Y-71777180D02*
X40756266Y-71681942D01*
X40756266Y-71681942D02*
X40756266Y-71396228D01*
X40756266Y-71396228D02*
X40803885Y-71300990D01*
X40803885Y-71300990D02*
X40851504Y-71253371D01*
X40851504Y-71253371D02*
X40946742Y-71205752D01*
X40946742Y-71205752D02*
X41137218Y-71205752D01*
X41137218Y-71205752D02*
X41232456Y-71253371D01*
X42470552Y-71872419D02*
X42470552Y-70872419D01*
X42470552Y-70872419D02*
X42708647Y-70872419D01*
X42708647Y-70872419D02*
X42851504Y-70920038D01*
X42851504Y-70920038D02*
X42946742Y-71015276D01*
X42946742Y-71015276D02*
X42994361Y-71110514D01*
X42994361Y-71110514D02*
X43041980Y-71300990D01*
X43041980Y-71300990D02*
X43041980Y-71443847D01*
X43041980Y-71443847D02*
X42994361Y-71634323D01*
X42994361Y-71634323D02*
X42946742Y-71729561D01*
X42946742Y-71729561D02*
X42851504Y-71824800D01*
X42851504Y-71824800D02*
X42708647Y-71872419D01*
X42708647Y-71872419D02*
X42470552Y-71872419D01*
X43899123Y-71872419D02*
X43899123Y-71348609D01*
X43899123Y-71348609D02*
X43851504Y-71253371D01*
X43851504Y-71253371D02*
X43756266Y-71205752D01*
X43756266Y-71205752D02*
X43565790Y-71205752D01*
X43565790Y-71205752D02*
X43470552Y-71253371D01*
X43899123Y-71824800D02*
X43803885Y-71872419D01*
X43803885Y-71872419D02*
X43565790Y-71872419D01*
X43565790Y-71872419D02*
X43470552Y-71824800D01*
X43470552Y-71824800D02*
X43422933Y-71729561D01*
X43422933Y-71729561D02*
X43422933Y-71634323D01*
X43422933Y-71634323D02*
X43470552Y-71539085D01*
X43470552Y-71539085D02*
X43565790Y-71491466D01*
X43565790Y-71491466D02*
X43803885Y-71491466D01*
X43803885Y-71491466D02*
X43899123Y-71443847D01*
X44375314Y-71872419D02*
X44375314Y-71205752D01*
X44375314Y-71396228D02*
X44422933Y-71300990D01*
X44422933Y-71300990D02*
X44470552Y-71253371D01*
X44470552Y-71253371D02*
X44565790Y-71205752D01*
X44565790Y-71205752D02*
X44661028Y-71205752D01*
X44994362Y-71872419D02*
X44994362Y-71205752D01*
X44994362Y-71300990D02*
X45041981Y-71253371D01*
X45041981Y-71253371D02*
X45137219Y-71205752D01*
X45137219Y-71205752D02*
X45280076Y-71205752D01*
X45280076Y-71205752D02*
X45375314Y-71253371D01*
X45375314Y-71253371D02*
X45422933Y-71348609D01*
X45422933Y-71348609D02*
X45422933Y-71872419D01*
X45422933Y-71348609D02*
X45470552Y-71253371D01*
X45470552Y-71253371D02*
X45565790Y-71205752D01*
X45565790Y-71205752D02*
X45708647Y-71205752D01*
X45708647Y-71205752D02*
X45803886Y-71253371D01*
X45803886Y-71253371D02*
X45851505Y-71348609D01*
X45851505Y-71348609D02*
X45851505Y-71872419D01*
X46280076Y-71824800D02*
X46375314Y-71872419D01*
X46375314Y-71872419D02*
X46565790Y-71872419D01*
X46565790Y-71872419D02*
X46661028Y-71824800D01*
X46661028Y-71824800D02*
X46708647Y-71729561D01*
X46708647Y-71729561D02*
X46708647Y-71681942D01*
X46708647Y-71681942D02*
X46661028Y-71586704D01*
X46661028Y-71586704D02*
X46565790Y-71539085D01*
X46565790Y-71539085D02*
X46422933Y-71539085D01*
X46422933Y-71539085D02*
X46327695Y-71491466D01*
X46327695Y-71491466D02*
X46280076Y-71396228D01*
X46280076Y-71396228D02*
X46280076Y-71348609D01*
X46280076Y-71348609D02*
X46327695Y-71253371D01*
X46327695Y-71253371D02*
X46422933Y-71205752D01*
X46422933Y-71205752D02*
X46565790Y-71205752D01*
X46565790Y-71205752D02*
X46661028Y-71253371D01*
X46994362Y-71205752D02*
X47375314Y-71205752D01*
X47137219Y-70872419D02*
X47137219Y-71729561D01*
X47137219Y-71729561D02*
X47184838Y-71824800D01*
X47184838Y-71824800D02*
X47280076Y-71872419D01*
X47280076Y-71872419D02*
X47375314Y-71872419D01*
X48137219Y-71872419D02*
X48137219Y-71348609D01*
X48137219Y-71348609D02*
X48089600Y-71253371D01*
X48089600Y-71253371D02*
X47994362Y-71205752D01*
X47994362Y-71205752D02*
X47803886Y-71205752D01*
X47803886Y-71205752D02*
X47708648Y-71253371D01*
X48137219Y-71824800D02*
X48041981Y-71872419D01*
X48041981Y-71872419D02*
X47803886Y-71872419D01*
X47803886Y-71872419D02*
X47708648Y-71824800D01*
X47708648Y-71824800D02*
X47661029Y-71729561D01*
X47661029Y-71729561D02*
X47661029Y-71634323D01*
X47661029Y-71634323D02*
X47708648Y-71539085D01*
X47708648Y-71539085D02*
X47803886Y-71491466D01*
X47803886Y-71491466D02*
X48041981Y-71491466D01*
X48041981Y-71491466D02*
X48137219Y-71443847D01*
X49041981Y-71872419D02*
X49041981Y-70872419D01*
X49041981Y-71824800D02*
X48946743Y-71872419D01*
X48946743Y-71872419D02*
X48756267Y-71872419D01*
X48756267Y-71872419D02*
X48661029Y-71824800D01*
X48661029Y-71824800D02*
X48613410Y-71777180D01*
X48613410Y-71777180D02*
X48565791Y-71681942D01*
X48565791Y-71681942D02*
X48565791Y-71396228D01*
X48565791Y-71396228D02*
X48613410Y-71300990D01*
X48613410Y-71300990D02*
X48661029Y-71253371D01*
X48661029Y-71253371D02*
X48756267Y-71205752D01*
X48756267Y-71205752D02*
X48946743Y-71205752D01*
X48946743Y-71205752D02*
X49041981Y-71253371D01*
X49375315Y-71205752D02*
X49756267Y-71205752D01*
X49518172Y-70872419D02*
X49518172Y-71729561D01*
X49518172Y-71729561D02*
X49565791Y-71824800D01*
X49565791Y-71824800D02*
X49661029Y-71872419D01*
X49661029Y-71872419D02*
X49756267Y-71872419D01*
X35661027Y-72372419D02*
X36232455Y-72372419D01*
X35946741Y-73372419D02*
X35946741Y-72372419D01*
X36994360Y-73372419D02*
X36994360Y-72848609D01*
X36994360Y-72848609D02*
X36946741Y-72753371D01*
X36946741Y-72753371D02*
X36851503Y-72705752D01*
X36851503Y-72705752D02*
X36661027Y-72705752D01*
X36661027Y-72705752D02*
X36565789Y-72753371D01*
X36994360Y-73324800D02*
X36899122Y-73372419D01*
X36899122Y-73372419D02*
X36661027Y-73372419D01*
X36661027Y-73372419D02*
X36565789Y-73324800D01*
X36565789Y-73324800D02*
X36518170Y-73229561D01*
X36518170Y-73229561D02*
X36518170Y-73134323D01*
X36518170Y-73134323D02*
X36565789Y-73039085D01*
X36565789Y-73039085D02*
X36661027Y-72991466D01*
X36661027Y-72991466D02*
X36899122Y-72991466D01*
X36899122Y-72991466D02*
X36994360Y-72943847D01*
X37470551Y-72705752D02*
X37470551Y-73372419D01*
X37470551Y-72800990D02*
X37518170Y-72753371D01*
X37518170Y-72753371D02*
X37613408Y-72705752D01*
X37613408Y-72705752D02*
X37756265Y-72705752D01*
X37756265Y-72705752D02*
X37851503Y-72753371D01*
X37851503Y-72753371D02*
X37899122Y-72848609D01*
X37899122Y-72848609D02*
X37899122Y-73372419D01*
X38375313Y-73372419D02*
X38375313Y-72372419D01*
X38470551Y-72991466D02*
X38756265Y-73372419D01*
X38756265Y-72705752D02*
X38375313Y-73086704D01*
X39613408Y-72705752D02*
X39613408Y-73372419D01*
X39184837Y-72705752D02*
X39184837Y-73229561D01*
X39184837Y-73229561D02*
X39232456Y-73324800D01*
X39232456Y-73324800D02*
X39327694Y-73372419D01*
X39327694Y-73372419D02*
X39470551Y-73372419D01*
X39470551Y-73372419D02*
X39565789Y-73324800D01*
X39565789Y-73324800D02*
X39613408Y-73277180D01*
X40089599Y-73372419D02*
X40089599Y-72372419D01*
X40518170Y-73372419D02*
X40518170Y-72848609D01*
X40518170Y-72848609D02*
X40470551Y-72753371D01*
X40470551Y-72753371D02*
X40375313Y-72705752D01*
X40375313Y-72705752D02*
X40232456Y-72705752D01*
X40232456Y-72705752D02*
X40137218Y-72753371D01*
X40137218Y-72753371D02*
X40089599Y-72800990D01*
X40994361Y-73372419D02*
X40994361Y-72705752D01*
X40994361Y-72896228D02*
X41041980Y-72800990D01*
X41041980Y-72800990D02*
X41089599Y-72753371D01*
X41089599Y-72753371D02*
X41184837Y-72705752D01*
X41184837Y-72705752D02*
X41280075Y-72705752D01*
X42375314Y-73372419D02*
X42375314Y-72705752D01*
X42375314Y-72896228D02*
X42422933Y-72800990D01*
X42422933Y-72800990D02*
X42470552Y-72753371D01*
X42470552Y-72753371D02*
X42565790Y-72705752D01*
X42565790Y-72705752D02*
X42661028Y-72705752D01*
X43518171Y-73372419D02*
X42946743Y-73372419D01*
X43232457Y-73372419D02*
X43232457Y-72372419D01*
X43232457Y-72372419D02*
X43137219Y-72515276D01*
X43137219Y-72515276D02*
X43041981Y-72610514D01*
X43041981Y-72610514D02*
X42946743Y-72658133D01*
D11*
X59761904Y-73500438D02*
X59666666Y-73452819D01*
X59666666Y-73452819D02*
X59523809Y-73452819D01*
X59523809Y-73452819D02*
X59380952Y-73500438D01*
X59380952Y-73500438D02*
X59285714Y-73595676D01*
X59285714Y-73595676D02*
X59238095Y-73690914D01*
X59238095Y-73690914D02*
X59190476Y-73881390D01*
X59190476Y-73881390D02*
X59190476Y-74024247D01*
X59190476Y-74024247D02*
X59238095Y-74214723D01*
X59238095Y-74214723D02*
X59285714Y-74309961D01*
X59285714Y-74309961D02*
X59380952Y-74405200D01*
X59380952Y-74405200D02*
X59523809Y-74452819D01*
X59523809Y-74452819D02*
X59619047Y-74452819D01*
X59619047Y-74452819D02*
X59761904Y-74405200D01*
X59761904Y-74405200D02*
X59809523Y-74357580D01*
X59809523Y-74357580D02*
X59809523Y-74024247D01*
X59809523Y-74024247D02*
X59619047Y-74024247D01*
X60238095Y-74452819D02*
X60238095Y-73452819D01*
X60238095Y-73452819D02*
X60809523Y-74452819D01*
X60809523Y-74452819D02*
X60809523Y-73452819D01*
X61285714Y-74452819D02*
X61285714Y-73452819D01*
X61285714Y-73452819D02*
X61523809Y-73452819D01*
X61523809Y-73452819D02*
X61666666Y-73500438D01*
X61666666Y-73500438D02*
X61761904Y-73595676D01*
X61761904Y-73595676D02*
X61809523Y-73690914D01*
X61809523Y-73690914D02*
X61857142Y-73881390D01*
X61857142Y-73881390D02*
X61857142Y-74024247D01*
X61857142Y-74024247D02*
X61809523Y-74214723D01*
X61809523Y-74214723D02*
X61761904Y-74309961D01*
X61761904Y-74309961D02*
X61666666Y-74405200D01*
X61666666Y-74405200D02*
X61523809Y-74452819D01*
X61523809Y-74452819D02*
X61285714Y-74452819D01*
X62809523Y-74452819D02*
X62238095Y-74452819D01*
X62523809Y-74452819D02*
X62523809Y-73452819D01*
X62523809Y-73452819D02*
X62428571Y-73595676D01*
X62428571Y-73595676D02*
X62333333Y-73690914D01*
X62333333Y-73690914D02*
X62238095Y-73738533D01*
X57555595Y-63744819D02*
X57555595Y-64554342D01*
X57555595Y-64554342D02*
X57603214Y-64649580D01*
X57603214Y-64649580D02*
X57650833Y-64697200D01*
X57650833Y-64697200D02*
X57746071Y-64744819D01*
X57746071Y-64744819D02*
X57936547Y-64744819D01*
X57936547Y-64744819D02*
X58031785Y-64697200D01*
X58031785Y-64697200D02*
X58079404Y-64649580D01*
X58079404Y-64649580D02*
X58127023Y-64554342D01*
X58127023Y-64554342D02*
X58127023Y-63744819D01*
X59127023Y-64744819D02*
X58555595Y-64744819D01*
X58841309Y-64744819D02*
X58841309Y-63744819D01*
X58841309Y-63744819D02*
X58746071Y-63887676D01*
X58746071Y-63887676D02*
X58650833Y-63982914D01*
X58650833Y-63982914D02*
X58555595Y-64030533D01*
X67166666Y-61334819D02*
X67166666Y-62049104D01*
X67166666Y-62049104D02*
X67119047Y-62191961D01*
X67119047Y-62191961D02*
X67023809Y-62287200D01*
X67023809Y-62287200D02*
X66880952Y-62334819D01*
X66880952Y-62334819D02*
X66785714Y-62334819D01*
X68166666Y-62334819D02*
X67595238Y-62334819D01*
X67880952Y-62334819D02*
X67880952Y-61334819D01*
X67880952Y-61334819D02*
X67785714Y-61477676D01*
X67785714Y-61477676D02*
X67690476Y-61572914D01*
X67690476Y-61572914D02*
X67595238Y-61620533D01*
X62420833Y-65804819D02*
X62087500Y-65328628D01*
X61849405Y-65804819D02*
X61849405Y-64804819D01*
X61849405Y-64804819D02*
X62230357Y-64804819D01*
X62230357Y-64804819D02*
X62325595Y-64852438D01*
X62325595Y-64852438D02*
X62373214Y-64900057D01*
X62373214Y-64900057D02*
X62420833Y-64995295D01*
X62420833Y-64995295D02*
X62420833Y-65138152D01*
X62420833Y-65138152D02*
X62373214Y-65233390D01*
X62373214Y-65233390D02*
X62325595Y-65281009D01*
X62325595Y-65281009D02*
X62230357Y-65328628D01*
X62230357Y-65328628D02*
X61849405Y-65328628D01*
X63373214Y-65804819D02*
X62801786Y-65804819D01*
X63087500Y-65804819D02*
X63087500Y-64804819D01*
X63087500Y-64804819D02*
X62992262Y-64947676D01*
X62992262Y-64947676D02*
X62897024Y-65042914D01*
X62897024Y-65042914D02*
X62801786Y-65090533D01*
X59008333Y-69054819D02*
X58675000Y-68578628D01*
X58436905Y-69054819D02*
X58436905Y-68054819D01*
X58436905Y-68054819D02*
X58817857Y-68054819D01*
X58817857Y-68054819D02*
X58913095Y-68102438D01*
X58913095Y-68102438D02*
X58960714Y-68150057D01*
X58960714Y-68150057D02*
X59008333Y-68245295D01*
X59008333Y-68245295D02*
X59008333Y-68388152D01*
X59008333Y-68388152D02*
X58960714Y-68483390D01*
X58960714Y-68483390D02*
X58913095Y-68531009D01*
X58913095Y-68531009D02*
X58817857Y-68578628D01*
X58817857Y-68578628D02*
X58436905Y-68578628D01*
X59389286Y-68150057D02*
X59436905Y-68102438D01*
X59436905Y-68102438D02*
X59532143Y-68054819D01*
X59532143Y-68054819D02*
X59770238Y-68054819D01*
X59770238Y-68054819D02*
X59865476Y-68102438D01*
X59865476Y-68102438D02*
X59913095Y-68150057D01*
X59913095Y-68150057D02*
X59960714Y-68245295D01*
X59960714Y-68245295D02*
X59960714Y-68340533D01*
X59960714Y-68340533D02*
X59913095Y-68483390D01*
X59913095Y-68483390D02*
X59341667Y-69054819D01*
X59341667Y-69054819D02*
X59960714Y-69054819D01*
X57785714Y-74452819D02*
X57214286Y-74452819D01*
X57500000Y-74452819D02*
X57500000Y-73452819D01*
X57500000Y-73452819D02*
X57404762Y-73595676D01*
X57404762Y-73595676D02*
X57309524Y-73690914D01*
X57309524Y-73690914D02*
X57214286Y-73738533D01*
X55470833Y-68989580D02*
X55423214Y-69037200D01*
X55423214Y-69037200D02*
X55280357Y-69084819D01*
X55280357Y-69084819D02*
X55185119Y-69084819D01*
X55185119Y-69084819D02*
X55042262Y-69037200D01*
X55042262Y-69037200D02*
X54947024Y-68941961D01*
X54947024Y-68941961D02*
X54899405Y-68846723D01*
X54899405Y-68846723D02*
X54851786Y-68656247D01*
X54851786Y-68656247D02*
X54851786Y-68513390D01*
X54851786Y-68513390D02*
X54899405Y-68322914D01*
X54899405Y-68322914D02*
X54947024Y-68227676D01*
X54947024Y-68227676D02*
X55042262Y-68132438D01*
X55042262Y-68132438D02*
X55185119Y-68084819D01*
X55185119Y-68084819D02*
X55280357Y-68084819D01*
X55280357Y-68084819D02*
X55423214Y-68132438D01*
X55423214Y-68132438D02*
X55470833Y-68180057D01*
X56423214Y-69084819D02*
X55851786Y-69084819D01*
X56137500Y-69084819D02*
X56137500Y-68084819D01*
X56137500Y-68084819D02*
X56042262Y-68227676D01*
X56042262Y-68227676D02*
X55947024Y-68322914D01*
X55947024Y-68322914D02*
X55851786Y-68370533D01*
D12*
X30156391Y-68578549D02*
X30789698Y-68578549D01*
X30789698Y-68578549D02*
X30864204Y-68541296D01*
X30864204Y-68541296D02*
X30901458Y-68504042D01*
X30901458Y-68504042D02*
X30938711Y-68429536D01*
X30938711Y-68429536D02*
X30938711Y-68280522D01*
X30938711Y-68280522D02*
X30901458Y-68206016D01*
X30901458Y-68206016D02*
X30864204Y-68168762D01*
X30864204Y-68168762D02*
X30789698Y-68131509D01*
X30789698Y-68131509D02*
X30156391Y-68131509D01*
X30230898Y-67796229D02*
X30193644Y-67758976D01*
X30193644Y-67758976D02*
X30156391Y-67684469D01*
X30156391Y-67684469D02*
X30156391Y-67498203D01*
X30156391Y-67498203D02*
X30193644Y-67423696D01*
X30193644Y-67423696D02*
X30230898Y-67386443D01*
X30230898Y-67386443D02*
X30305404Y-67349189D01*
X30305404Y-67349189D02*
X30379911Y-67349189D01*
X30379911Y-67349189D02*
X30491671Y-67386443D01*
X30491671Y-67386443D02*
X30938711Y-67833483D01*
X30938711Y-67833483D02*
X30938711Y-67349189D01*
D13*
%TO.C,GND1*%
X59800000Y-70800000D02*
X62200000Y-70800000D01*
X59800000Y-73200000D02*
X59800000Y-70800000D01*
X62200000Y-70800000D02*
X62200000Y-73200000D01*
X62200000Y-73200000D02*
X59800000Y-73200000D01*
%TO.C,U1*%
X54707500Y-50550000D02*
X61927500Y-50550000D01*
X54707500Y-63450000D02*
X54707500Y-50550000D01*
X61927500Y-50550000D02*
X61927500Y-60514000D01*
X61927500Y-61106000D02*
X61927500Y-63450000D01*
X61927500Y-63450000D02*
X54707500Y-63450000D01*
X62397500Y-61150000D02*
X61927500Y-60810000D01*
X62397500Y-60470000D01*
X62397500Y-61150000D01*
G36*
X62397500Y-61150000D02*
G01*
X61927500Y-60810000D01*
X62397500Y-60470000D01*
X62397500Y-61150000D01*
G37*
%TO.C,J1*%
X66120000Y-58230000D02*
X66120000Y-50500000D01*
X68880000Y-50500000D02*
X66120000Y-50500000D01*
X68880000Y-58230000D02*
X66120000Y-58230000D01*
X68880000Y-58230000D02*
X68880000Y-50500000D01*
X68880000Y-59500000D02*
X68880000Y-60880000D01*
X68880000Y-60880000D02*
X67500000Y-60880000D01*
%TO.C,R1*%
X62360436Y-66265000D02*
X62814564Y-66265000D01*
X62360436Y-67735000D02*
X62814564Y-67735000D01*
%TO.C,R2*%
X59402064Y-66215000D02*
X58947936Y-66215000D01*
X59402064Y-67685000D02*
X58947936Y-67685000D01*
%TO.C,1*%
X56300000Y-70800000D02*
X58700000Y-70800000D01*
X56300000Y-73200000D02*
X56300000Y-70800000D01*
X58700000Y-70800000D02*
X58700000Y-73200000D01*
X58700000Y-73200000D02*
X56300000Y-73200000D01*
%TO.C,C1*%
X55898752Y-66215000D02*
X55376248Y-66215000D01*
X55898752Y-67685000D02*
X55376248Y-67685000D01*
D14*
%TO.C,U2*%
X29993000Y-63936272D02*
X29993000Y-55941000D01*
X30493000Y-55441000D02*
X31503000Y-55441000D01*
D10*
X31503000Y-52960000D02*
X31503000Y-66930000D01*
D14*
X31503000Y-64440000D02*
X30492728Y-64436272D01*
D10*
X50553000Y-51055000D02*
X33408000Y-51055000D01*
X50553000Y-68835000D02*
X33408000Y-68835000D01*
X52458000Y-66930000D02*
X52458000Y-52960000D01*
D14*
X29993000Y-55941000D02*
G75*
G02*
X30493000Y-55441000I500000J0D01*
G01*
X30492728Y-64436272D02*
G75*
G02*
X29993001Y-63936272I291J500018D01*
G01*
D10*
X31503000Y-52960000D02*
G75*
G02*
X33408000Y-51055000I1905000J0D01*
G01*
X33404000Y-68835000D02*
G75*
G02*
X31499000Y-66930000I1J1905001D01*
G01*
X50553000Y-51055000D02*
G75*
G02*
X52458000Y-52960000I0J-1905000D01*
G01*
X52458000Y-66930000D02*
G75*
G02*
X50553000Y-68835000I-1905001J1D01*
G01*
D15*
X32171000Y-69045000D02*
G75*
G02*
X31667000Y-69045000I-252000J0D01*
G01*
X31667000Y-69045000D02*
G75*
G02*
X32171000Y-69045000I252000J0D01*
G01*
X33051000Y-67902000D02*
G75*
G02*
X32547000Y-67902000I-252000J0D01*
G01*
X32547000Y-67902000D02*
G75*
G02*
X33051000Y-67902000I252000J0D01*
G01*
%TD*%
%LPC*%
D16*
%TO.C,GND1*%
X61000000Y-72000000D03*
%TD*%
D17*
%TO.C,U1*%
X59967500Y-60810000D03*
D18*
X59967500Y-58270000D03*
X59967500Y-55730000D03*
X59967500Y-53190000D03*
%TD*%
D19*
%TO.C,J1*%
X67500000Y-59500000D03*
D20*
X67500000Y-56960000D03*
X67500000Y-54420000D03*
X67500000Y-51880000D03*
%TD*%
D21*
%TO.C,R1*%
X61675000Y-67000000D03*
X63500000Y-67000000D03*
%TD*%
D22*
%TO.C,R2*%
X60087500Y-66950000D03*
X58262500Y-66950000D03*
%TD*%
D16*
%TO.C,1*%
X57500000Y-72000000D03*
%TD*%
D23*
%TO.C,H1*%
X32500000Y-47500000D03*
%TD*%
%TO.C,H3*%
X32500000Y-72500000D03*
%TD*%
%TO.C,H4*%
X67500000Y-72500000D03*
%TD*%
D24*
%TO.C,C1*%
X56587500Y-66950000D03*
X54687500Y-66950000D03*
%TD*%
D25*
%TO.C,U2*%
X34420000Y-68000000D03*
X36960000Y-68000000D03*
X39500000Y-68000000D03*
X42040000Y-68000000D03*
X44580000Y-68000000D03*
X47120000Y-68000000D03*
X49660000Y-68000000D03*
X49660000Y-51835000D03*
X47120000Y-51835000D03*
X44580000Y-51835000D03*
X42040000Y-51835000D03*
X39500000Y-51835000D03*
X36960000Y-51835000D03*
X34420000Y-51835000D03*
D26*
X41658000Y-64390000D03*
X39753000Y-64390000D03*
D20*
X33408000Y-61215000D03*
X33408000Y-58675000D03*
X35948000Y-61215000D03*
X35948000Y-58675000D03*
X38488000Y-61215000D03*
X38488000Y-58675000D03*
%TD*%
D23*
%TO.C,H2*%
X67500000Y-47500000D03*
%TD*%
%LPD*%
M02*
