%TF.GenerationSoftware,KiCad,Pcbnew,9.0.6*%
%TF.CreationDate,2025-11-11T11:50:20+01:00*%
%TF.ProjectId,tankuhr,74616e6b-7568-4722-9e6b-696361645f70,rev?*%
%TF.SameCoordinates,Original*%
%TF.FileFunction,Soldermask,Top*%
%TF.FilePolarity,Negative*%
%FSLAX46Y46*%
G04 Gerber Fmt 4.6, Leading zero omitted, Abs format (unit mm)*
G04 Created by KiCad (PCBNEW 9.0.6) date 2025-11-11 11:50:20*
%MOMM*%
%LPD*%
G01*
G04 APERTURE LIST*
G04 Aperture macros list*
%AMRoundRect*
0 Rectangle with rounded corners*
0 $1 Rounding radius*
0 $2 $3 $4 $5 $6 $7 $8 $9 X,Y pos of 4 corners*
0 Add a 4 corners polygon primitive as box body*
4,1,4,$2,$3,$4,$5,$6,$7,$8,$9,$2,$3,0*
0 Add four circle primitives for the rounded corners*
1,1,$1+$1,$2,$3*
1,1,$1+$1,$4,$5*
1,1,$1+$1,$6,$7*
1,1,$1+$1,$8,$9*
0 Add four rect primitives between the rounded corners*
20,1,$1+$1,$2,$3,$4,$5,0*
20,1,$1+$1,$4,$5,$6,$7,0*
20,1,$1+$1,$6,$7,$8,$9,0*
20,1,$1+$1,$8,$9,$2,$3,0*%
G04 Aperture macros list end*
%ADD10R,2.000000X2.000000*%
%ADD11RoundRect,0.250000X0.650000X0.650000X-0.650000X0.650000X-0.650000X-0.650000X0.650000X-0.650000X0*%
%ADD12C,1.800000*%
%ADD13R,1.700000X1.700000*%
%ADD14C,1.700000*%
%ADD15RoundRect,0.250000X-0.262500X-0.450000X0.262500X-0.450000X0.262500X0.450000X-0.262500X0.450000X0*%
%ADD16RoundRect,0.250000X0.262500X0.450000X-0.262500X0.450000X-0.262500X-0.450000X0.262500X-0.450000X0*%
%ADD17C,2.200000*%
%ADD18RoundRect,0.250000X0.250000X0.475000X-0.250000X0.475000X-0.250000X-0.475000X0.250000X-0.475000X0*%
%ADD19RoundRect,0.525400X0.525400X-0.900400X0.525400X0.900400X-0.525400X0.900400X-0.525400X-0.900400X0*%
%ADD20RoundRect,0.300400X-0.300400X1.000400X-0.300400X-1.000400X0.300400X-1.000400X0.300400X1.000400X0*%
G04 APERTURE END LIST*
D10*
%TO.C,GND1*%
X61000000Y-72000000D03*
%TD*%
D11*
%TO.C,U1*%
X59967500Y-60810000D03*
D12*
X59967500Y-58270000D03*
X59967500Y-55730000D03*
X59967500Y-53190000D03*
%TD*%
D13*
%TO.C,J1*%
X67500000Y-59500000D03*
D14*
X67500000Y-56960000D03*
X67500000Y-54420000D03*
X67500000Y-51880000D03*
%TD*%
D15*
%TO.C,R1*%
X61675000Y-67000000D03*
X63500000Y-67000000D03*
%TD*%
D16*
%TO.C,R2*%
X60087500Y-66950000D03*
X58262500Y-66950000D03*
%TD*%
D10*
%TO.C,1*%
X57500000Y-72000000D03*
%TD*%
D17*
%TO.C,H1*%
X32500000Y-47500000D03*
%TD*%
%TO.C,H3*%
X32500000Y-72500000D03*
%TD*%
%TO.C,H4*%
X67500000Y-72500000D03*
%TD*%
D18*
%TO.C,C1*%
X56587500Y-66950000D03*
X54687500Y-66950000D03*
%TD*%
D19*
%TO.C,U2*%
X34420000Y-68000000D03*
X36960000Y-68000000D03*
X39500000Y-68000000D03*
X42040000Y-68000000D03*
X44580000Y-68000000D03*
X47120000Y-68000000D03*
X49660000Y-68000000D03*
X49660000Y-51835000D03*
X47120000Y-51835000D03*
X44580000Y-51835000D03*
X42040000Y-51835000D03*
X39500000Y-51835000D03*
X36960000Y-51835000D03*
X34420000Y-51835000D03*
D20*
X41658000Y-64390000D03*
X39753000Y-64390000D03*
D14*
X33408000Y-61215000D03*
X33408000Y-58675000D03*
X35948000Y-61215000D03*
X35948000Y-58675000D03*
X38488000Y-61215000D03*
X38488000Y-58675000D03*
%TD*%
D17*
%TO.C,H2*%
X67500000Y-47500000D03*
%TD*%
M02*
